<svg xmlns="http://www.w3.org/2000/svg" width="500" height="500"><path d="M0 0 C1.0627137 -0.0076664 1.0627137 -0.0076664 2.14689636 -0.01548767 C4.46268427 -0.0292598 6.77817044 -0.02843649 9.09399414 -0.02612305 C10.72009896 -0.03001651 12.34620277 -0.0343525 13.9723053 -0.03910828 C17.37056789 -0.04654367 20.76872654 -0.04629855 24.16699219 -0.04101562 C28.50208063 -0.03522155 32.83674175 -0.05216341 37.17175961 -0.0753603 C40.52712961 -0.09015591 43.88239803 -0.0909615 47.23779488 -0.08785057 C48.83523976 -0.08836076 50.43269078 -0.09354111 52.03010368 -0.10366249 C60.33036473 -0.14981073 67.67160843 -0.05159039 75.44165039 3.2746582 C75.44165039 3.9346582 75.44165039 4.5946582 75.44165039 5.2746582 C76.03977539 5.5427832 76.63790039 5.8109082 77.25415039 6.0871582 C79.4535568 7.28112168 80.75914526 8.44584828 82.44165039 10.2746582 C82.9327832 10.69618164 83.42391602 11.11770508 83.92993164 11.55200195 C85.83657948 13.72469368 86.32861625 15.61783722 87.06665039 18.3996582 C87.74112449 21.61831703 87.74112449 21.61831703 89.44165039 24.2746582 C89.53036312 27.30443624 89.55684389 30.31132842 89.53930664 33.34106445 C89.53718422 34.70399879 89.53718422 34.70399879 89.53501892 36.09446716 C89.52940232 39.00873041 89.51684704 41.92291801 89.50415039 44.8371582 C89.49913753 46.80786022 89.49457425 48.77856344 89.49047852 50.74926758 C89.4794275 55.59109379 89.46215177 60.43286315 89.44165039 65.2746582 C91.10454102 65.25725586 91.10454102 65.25725586 92.80102539 65.23950195 C94.26456537 65.23012029 95.72810717 65.22102049 97.19165039 65.2121582 C97.92125977 65.2037793 98.65086914 65.19540039 99.40258789 65.18676758 C106.15343324 65.15608192 106.15343324 65.15608192 109.44165039 66.2746582 C109.77165039 66.9346582 110.10165039 67.5946582 110.44165039 68.2746582 C111.43165039 68.6046582 112.42165039 68.9346582 113.44165039 69.2746582 C116.46869098 72.47976 117.93920199 74.87823473 118.44165039 79.2746582 C119.10165039 79.2746582 119.76165039 79.2746582 120.44165039 79.2746582 C120.44165039 140.6546582 120.44165039 202.0346582 120.44165039 265.2746582 C119.78165039 265.2746582 119.12165039 265.2746582 118.44165039 265.2746582 C118.25602539 266.3265332 118.07040039 267.3784082 117.87915039 268.4621582 C116.74424217 272.47924342 114.6563144 274.12320334 111.29321289 276.42700195 C109.44165039 277.2746582 109.44165039 277.2746582 105.44165039 277.2746582 C105.44165039 277.9346582 105.44165039 278.5946582 105.44165039 279.2746582 C103.46165039 279.2746582 101.48165039 279.2746582 99.44165039 279.2746582 C98.78165039 281.5846582 98.12165039 283.8946582 97.44165039 286.2746582 C96.78165039 286.2746582 96.12165039 286.2746582 95.44165039 286.2746582 C95.29727539 286.8727832 95.15290039 287.4709082 95.00415039 288.0871582 C93.79461363 292.79091229 92.41640493 294.46324646 88.44165039 297.2746582 C87.78165039 297.2746582 87.12165039 297.2746582 86.44165039 297.2746582 C86.11165039 298.2646582 85.78165039 299.2546582 85.44165039 300.2746582 C75.39935116 304.05633008 64.22532174 303.39409877 54.44165039 299.2746582 C54.44165039 298.6146582 54.44165039 297.9546582 54.44165039 297.2746582 C53.57540039 296.9343457 53.57540039 296.9343457 52.69165039 296.5871582 C49.8442523 294.92617598 48.32097846 292.95941259 46.44165039 290.2746582 C46.44165039 289.6146582 46.44165039 288.9546582 46.44165039 288.2746582 C45.78165039 288.2746582 45.12165039 288.2746582 44.44165039 288.2746582 C43.45165039 285.3046582 42.46165039 282.3346582 41.44165039 279.2746582 C32.86165039 279.2746582 24.28165039 279.2746582 15.44165039 279.2746582 C15.11165039 281.9146582 14.78165039 284.5546582 14.44165039 287.2746582 C13.78165039 287.2746582 13.12165039 287.2746582 12.44165039 287.2746582 C12.21477539 288.1821582 11.98790039 289.0896582 11.75415039 290.0246582 C10.249299 293.75095688 8.65297145 294.96909437 5.44165039 297.2746582 C5.11165039 297.9346582 4.78165039 298.5946582 4.44165039 299.2746582 C-4.72951289 303.38586933 -15.40809188 303.95543091 -24.99584961 300.7746582 C-26.17147461 300.2796582 -27.34709961 299.7846582 -28.55834961 299.2746582 C-28.55834961 298.6146582 -28.55834961 297.9546582 -28.55834961 297.2746582 C-29.54834961 296.9446582 -30.53834961 296.6146582 -31.55834961 296.2746582 C-35.35368893 292.11202798 -39.32053936 287.06892864 -39.80834961 281.3371582 C-39.72584961 280.6565332 -39.64334961 279.9759082 -39.55834961 279.2746582 C-41.07428711 279.3674707 -41.07428711 279.3674707 -42.62084961 279.4621582 C-47.7523878 279.21779924 -51.53333774 278.20154175 -55.33178711 274.5871582 C-59.55834961 269.82483426 -59.55834961 269.82483426 -59.55834961 267.2746582 C-60.21834961 267.2746582 -60.87834961 267.2746582 -61.55834961 267.2746582 C-62.73354752 263.74906446 -62.69687103 260.57807803 -62.68533325 256.9107666 C-62.68689324 256.15486284 -62.68845323 255.39895907 -62.6900605 254.62014914 C-62.69405845 252.07983562 -62.69088549 249.53958157 -62.68774414 246.99926758 C-62.68909871 245.18105535 -62.69087896 243.36284339 -62.6930542 241.54463196 C-62.69762185 236.60054416 -62.6958417 231.65647717 -62.69267511 226.71238899 C-62.69014808 221.54479032 -62.69249001 216.37719347 -62.69406128 211.20959473 C-62.69588197 202.53059569 -62.6934793 193.85160516 -62.6887207 185.17260742 C-62.68327828 175.13026736 -62.68504101 165.08794761 -62.69054711 155.04560804 C-62.6950811 146.43240672 -62.69572738 137.81921152 -62.69310844 129.20600939 C-62.69154725 124.05780231 -62.69134761 118.90960478 -62.69464493 113.76139832 C-62.69752778 108.92204523 -62.69554028 104.08271839 -62.68975067 99.24336815 C-62.68842531 97.46436291 -62.68881342 95.68535547 -62.69101334 93.90635109 C-62.69373357 91.48372056 -62.69033293 89.06117488 -62.68533325 86.6385498 C-62.68756397 85.92950925 -62.6897947 85.2204687 -62.69209301 84.48994207 C-62.66395037 77.49081904 -62.66395037 77.49081904 -60.30834961 74.8996582 C-59.73084961 74.3634082 -59.15334961 73.8271582 -58.55834961 73.2746582 C-57.73334961 72.3877832 -56.90834961 71.5009082 -56.05834961 70.5871582 C-53.55834961 68.2746582 -53.55834961 68.2746582 -50.55834961 68.2746582 C-50.55834961 67.6146582 -50.55834961 66.9546582 -50.55834961 66.2746582 C-46.79534587 65.02032362 -43.28624052 65.16770398 -39.37084961 65.2121582 C-38.62125977 65.21666992 -37.87166992 65.22118164 -37.09936523 65.22583008 C-35.25232578 65.23759466 -33.40532748 65.25552955 -31.55834961 65.2746582 C-31.56620483 63.50421143 -31.56620483 63.50421143 -31.57421875 61.69799805 C-31.59236951 57.30347456 -31.60381839 52.90895437 -31.61328125 48.5144043 C-31.61829846 46.61531008 -31.62511372 44.7162197 -31.63378906 42.81713867 C-31.64596924 40.08161468 -31.65160415 37.34614194 -31.65600586 34.6105957 C-31.66116714 33.76661224 -31.66632843 32.92262878 -31.67164612 32.05307007 C-31.67205915 27.67629978 -31.43923925 23.58461653 -30.55834961 19.2746582 C-29.89834961 19.2746582 -29.23834961 19.2746582 -28.55834961 19.2746582 C-28.41397461 18.4909082 -28.26959961 17.7071582 -28.12084961 16.8996582 C-27.55834961 14.2746582 -27.55834961 14.2746582 -26.55834961 12.2746582 C-25.89834961 12.2746582 -25.23834961 12.2746582 -24.55834961 12.2746582 C-24.29280273 11.67911133 -24.02725586 11.08356445 -23.75366211 10.4699707 C-22.5217113 8.20736824 -21.3505834 6.8528752 -19.43334961 5.1496582 C-18.89452148 4.65208008 -18.35569336 4.15450195 -17.80053711 3.6418457 C-12.41094357 0.35550818 -6.16629506 0.02237594 0 0 Z M-2.55834961 29.2746582 C-2.64689308 31.9406736 -2.67366861 34.58135219 -2.65600586 37.24731445 C-2.65499878 37.95400269 -2.6539917 38.66069092 -2.6529541 39.38879395 C-2.64770706 42.03826511 -2.6337459 44.68771322 -2.62084961 47.3371582 C-2.60022461 53.2565332 -2.57959961 59.1759082 -2.55834961 65.2746582 C17.90165039 65.2746582 38.36165039 65.2746582 59.44165039 65.2746582 C59.44165039 53.0646582 59.44165039 40.8546582 59.44165039 28.2746582 C51.51274724 28.25371305 43.58394374 28.23367492 35.65503693 28.22290802 C31.96304649 28.21761818 28.27107884 28.21054446 24.57910156 28.19921875 C21.02594208 28.18838658 17.47280476 28.18238067 13.91963005 28.17978096 C12.56119373 28.17792731 11.20275868 28.17430782 9.84433174 28.16892815 C7.94782816 28.16171345 6.05130246 28.16125011 4.15478516 28.16113281 C3.07334732 28.1589122 1.99190948 28.15669159 0.87770081 28.15440369 C-1.50632432 27.9988385 -1.50632432 27.9988385 -2.55834961 29.2746582 Z M43.578125 96.66479492 C42.24941131 98.21854075 42.24941131 98.21854075 42.44165039 100.2746582 C40.46165039 101.2646582 40.46165039 101.2646582 38.44165039 102.2746582 C38.44165039 102.9346582 38.44165039 103.5946582 38.44165039 104.2746582 C37.45165039 104.6046582 36.46165039 104.9346582 35.44165039 105.2746582 C31.80151972 108.75401293 31.80151972 108.75401293 30.44165039 113.2746582 C29.45165039 113.6046582 28.46165039 113.9346582 27.44165039 114.2746582 C26.17595286 115.73507844 24.91435901 117.20062185 23.71508789 118.71606445 C22.44165039 120.2746582 22.44165039 120.2746582 20.12915039 122.5246582 C18.21027187 124.10942609 18.21027187 124.10942609 18.44165039 126.2746582 C17.45165039 126.6046582 16.46165039 126.9346582 15.44165039 127.2746582 C11.80151972 130.75401293 11.80151972 130.75401293 10.44165039 135.2746582 C9.84352539 135.5427832 9.24540039 135.8109082 8.62915039 136.0871582 C6.44317185 137.27383227 5.02832445 138.37064933 3.44165039 140.2746582 C3.44165039 140.9346582 3.44165039 141.5946582 3.44165039 142.2746582 C1.95665039 142.7696582 1.95665039 142.7696582 0.44165039 143.2746582 C0.29727539 143.9140332 0.15290039 144.5534082 0.00415039 145.2121582 C-0.55834961 147.2746582 -0.55834961 147.2746582 -2.62084961 148.5246582 C-3.26022461 148.7721582 -3.89959961 149.0196582 -4.55834961 149.2746582 C-4.55834961 149.9346582 -4.55834961 150.5946582 -4.55834961 151.2746582 C-6.04334961 151.7696582 -6.04334961 151.7696582 -7.55834961 152.2746582 C-6.54768181 155.30666159 -5.92341804 156.27344646 -3.55834961 158.2746582 C-2.56834961 158.6046582 -1.57834961 158.9346582 -0.55834961 159.2746582 C0.61271546 160.67993629 1.77969425 162.08897851 2.91821289 163.52075195 C6.78515295 167.97269064 11.58817311 171.93473932 16.44165039 175.2746582 C17.10165039 175.2746582 17.76165039 175.2746582 18.44165039 175.2746582 C19.10165039 176.5946582 19.76165039 177.9146582 20.44165039 179.2746582 C21.10165039 179.2746582 21.76165039 179.2746582 22.44165039 179.2746582 C23.10165039 180.5946582 23.76165039 181.9146582 24.44165039 183.2746582 C25.10165039 183.2746582 25.76165039 183.2746582 26.44165039 183.2746582 C27.10165039 184.5946582 27.76165039 185.9146582 28.44165039 187.2746582 C29.10165039 187.2746582 29.76165039 187.2746582 30.44165039 187.2746582 C30.44165039 187.9346582 30.44165039 188.5946582 30.44165039 189.2746582 C31.06040039 189.3571582 31.67915039 189.4396582 32.31665039 189.5246582 C34.44165039 190.2746582 34.44165039 190.2746582 35.69165039 192.3371582 C35.93915039 192.9765332 36.18665039 193.6159082 36.44165039 194.2746582 C37.10165039 194.2746582 37.76165039 194.2746582 38.44165039 194.2746582 C39.10165039 195.5946582 39.76165039 196.9146582 40.44165039 198.2746582 C41.10165039 198.2746582 41.76165039 198.2746582 42.44165039 198.2746582 C43.10165039 199.5946582 43.76165039 200.9146582 44.44165039 202.2746582 C47.77866168 201.16232111 48.11676504 200.65052313 49.94165039 197.8371582 C51.70142706 195.13544978 52.64072169 194.141944 55.44165039 192.2746582 C55.44165039 191.6146582 55.44165039 190.9546582 55.44165039 190.2746582 C56.76165039 189.6146582 58.08165039 188.9546582 59.44165039 188.2746582 C59.44165039 187.6146582 59.44165039 186.9546582 59.44165039 186.2746582 C60.43165039 185.9446582 61.42165039 185.6146582 62.44165039 185.2746582 C63.66131706 183.56053208 64.87722643 181.84336056 66.05883789 180.1027832 C68.12782025 177.36751839 70.79308694 175.43675081 73.44165039 173.2746582 C77.67929987 169.3474399 77.67929987 169.3474399 79.44165039 164.2746582 C80.10165039 164.2746582 80.76165039 164.2746582 81.44165039 164.2746582 C81.81290039 163.0990332 81.81290039 163.0990332 82.19165039 161.8996582 C83.59554138 158.95148712 84.44840776 158.3721805 87.44165039 157.2746582 C87.44165039 156.6146582 87.44165039 155.9546582 87.44165039 155.2746582 C88.76165039 154.6146582 90.08165039 153.9546582 91.44165039 153.2746582 C91.44165039 152.6146582 91.44165039 151.9546582 91.44165039 151.2746582 C92.43165039 150.9446582 93.42165039 150.6146582 94.44165039 150.2746582 C94.58602539 149.6352832 94.73040039 148.9959082 94.87915039 148.3371582 C95.15758789 147.3162207 95.15758789 147.3162207 95.44165039 146.2746582 C96.76165039 145.6146582 98.08165039 144.9546582 99.44165039 144.2746582 C98.45165039 135.8596582 98.45165039 135.8596582 97.44165039 127.2746582 C96.78165039 127.2746582 96.12165039 127.2746582 95.44165039 127.2746582 C95.38106445 126.20086914 95.32047852 125.12708008 95.25805664 124.02075195 C95.17357388 122.58454505 95.08892985 121.14834762 95.00415039 119.7121582 C94.96483398 119.00768555 94.92551758 118.30321289 94.88500977 117.57739258 C94.6164676 113.0948041 94.13548842 108.71172323 93.44165039 104.2746582 C92.78165039 104.2746582 92.12165039 104.2746582 91.44165039 104.2746582 C91.44165039 102.6246582 91.44165039 100.9746582 91.44165039 99.2746582 C87.36934613 97.78341321 83.72778949 96.9533706 79.40649414 96.6418457 C77.69623047 96.51616211 77.69623047 96.51616211 75.95141602 96.38793945 C74.77256836 96.30930664 73.5937207 96.23067383 72.37915039 96.1496582 C70.65148437 96.02010742 70.65148437 96.02010742 68.88891602 95.88793945 C63.01689119 95.47297864 57.14329918 95.17125434 51.25805664 95.0324707 C50.21206299 95.00556152 49.16606934 94.97865234 48.08837891 94.95092773 C45.41324649 95.05597621 45.41324649 95.05597621 43.578125 96.66479492 Z " fill="#FFFFFF" transform="translate(221.558349609375,98.725341796875)"></path><path d="M0 0 C1.06347656 -0.00257813 2.12695312 -0.00515625 3.22265625 -0.0078125 C5.9375 0.125 5.9375 0.125 7.9375 1.125 C7.9375 1.785 7.9375 2.445 7.9375 3.125 C8.5975 3.125 9.2575 3.125 9.9375 3.125 C11.99451803 6.5207123 12.20719117 9.1867659 12.1875 13.125 C12.19265625 14.15625 12.1978125 15.1875 12.203125 16.25 C11.84142605 20.16485926 10.90599413 22.25023111 8 24.875 C3.37796014 26.76154688 -1.13373991 26.35805871 -6.0625 26.125 C-6.0625 25.465 -6.0625 24.805 -6.0625 24.125 C-7.3825 23.795 -8.7025 23.465 -10.0625 23.125 C-10.0625 22.465 -10.0625 21.805 -10.0625 21.125 C-10.7225 21.125 -11.3825 21.125 -12.0625 21.125 C-13.7239632 16.1406104 -14.21809845 10.08264555 -12.2734375 5.10546875 C-9.03644583 0.02759251 -5.62468189 -0.01366873 0 0 Z " fill="#FFFFFF" transform="translate(293.0625,206.875)"></path></svg>