<svg xmlns="http://www.w3.org/2000/svg" width="500" height="500"><path d="M0 0 C12.03923693 -0.11583311 24.07834136 -0.20468486 36.11802197 -0.25906086 C41.70852015 -0.28515829 47.2986372 -0.32055972 52.88891602 -0.37719727 C58.28354451 -0.43151076 63.67780634 -0.46141943 69.07268715 -0.47438622 C71.13122646 -0.48362721 73.18974562 -0.50167281 75.24812889 -0.52865028 C78.1309488 -0.56493144 81.01225232 -0.56994569 83.89526367 -0.56762695 C84.74690598 -0.58560333 85.59854828 -0.60357971 86.47599792 -0.62210083 C90.86108842 -0.58391926 92.49810243 -0.39419819 96.06904602 2.41047668 C98 5 98 5 98 7 C98.66 7 99.32 7 100 7 C101.98 11.29 103.96 15.58 106 20 C63.43 20 20.86 20 -23 20 C-20.81373498 14.53433746 -19.77110966 13.92108755 -15 11 C-13.45113493 9.56586568 -12.0761399 8.08701703 -10.6875 6.5 C-7.50395435 3.67018165 -4.26357859 2 0 2 C0 1.34 0 0.68 0 0 Z " fill="#FFFFFF" transform="translate(181,341)"></path><path d="M0 0 C3 1 3 1 4.11914062 2.8984375 C4.63250977 4.12433594 4.63250977 4.12433594 5.15625 5.375 C5.53910156 6.27863281 5.92195313 7.18226563 6.31640625 8.11328125 C6.90228516 9.54220703 6.90228516 9.54220703 7.5 11 C8.08587891 12.38251953 8.08587891 12.38251953 8.68359375 13.79296875 C15.88284893 30.97906951 15.88284893 30.97906951 14 36 C12.98830891 38.26466415 11.96129504 40.52136074 10.921875 42.7734375 C9.80094535 45.48076758 9.29832184 48.09136203 9 51 C11.93246659 52.4662333 14.67766743 51.97087389 17.90625 51.83984375 C20 52 20 52 22 54 C22.50150782 56.15018052 22.90341673 58.32401096 23.25390625 60.50390625 C23.57584961 62.45006836 23.57584961 62.45006836 23.90429688 64.43554688 C24.12424938 65.81110985 24.34364365 67.1867622 24.5625 68.5625 C24.99621829 71.25218429 25.43643026 73.9406307 25.87890625 76.62890625 C26.0704126 77.82588135 26.26191895 79.02285645 26.45922852 80.25610352 C26.71598436 82.90166242 26.71598436 82.90166242 28 84 C28.26082134 85.99383425 28.45957503 87.99599467 28.625 90 C28.72039062 91.093125 28.81578125 92.18625 28.9140625 93.3125 C28.94242187 94.199375 28.97078125 95.08625 29 96 C28 97 28 97 25.31616211 97.11352539 C24.14835205 97.10828857 22.98054199 97.10305176 21.77734375 97.09765625 C20.51728516 97.09443359 19.25722656 97.09121094 17.95898438 97.08789062 C16.61848891 97.07953403 15.27799412 97.07106907 13.9375 97.0625 C12.59310058 97.0574866 11.2486994 97.05292342 9.90429688 97.04882812 C6.60282059 97.03699488 3.30143197 97.02050971 0 97 C-0.13277344 95.85660156 -0.26554688 94.71320313 -0.40234375 93.53515625 C-0.5805031 92.0442438 -0.75890082 90.55335982 -0.9375 89.0625 C-1.02451172 88.30775391 -1.11152344 87.55300781 -1.20117188 86.77539062 C-1.34324099 83.07812542 -1.34324099 83.07812542 -3 80 C-3.27534203 78.20717142 -3.49198821 76.40526282 -3.68359375 74.6015625 C-3.86825195 72.92126953 -3.86825195 72.92126953 -4.05664062 71.20703125 C-4.18232422 70.02496094 -4.30800781 68.84289062 -4.4375 67.625 C-5.58482049 56.85597064 -6.92582648 46.40673526 -10 36 C-10.92149532 32.06119596 -11.74970403 28.10176908 -12.58789062 24.14453125 C-13.12685846 20.25502855 -13.12685846 20.25502855 -15 17 C-15.04063832 15.33382885 -15.042721 13.66611905 -15 12 C-14.40832031 11.84144531 -13.81664062 11.68289062 -13.20703125 11.51953125 C-7.93839348 9.96386496 -4.49008638 8.47167318 -1 4 C-0.13880866 1.82653432 -0.13880866 1.82653432 0 0 Z " fill="#FFFFFF" transform="translate(235,216)"></path><path d="M0 0 C8.87143378 5.69392505 16.68634508 16.88485826 19.4375 27.04296875 C19.67764426 30.88527684 19.26893673 34.24374202 18.625 38.04296875 C18.295 38.37296875 17.965 38.70296875 17.625 39.04296875 C17.45833333 42.54296875 17.45833333 42.54296875 17.625 46.04296875 C17.955 46.37296875 18.285 46.70296875 18.625 47.04296875 C18.85692865 48.55766323 19.03715238 50.08051437 19.1875 51.60546875 C19.27128906 52.43175781 19.35507813 53.25804687 19.44140625 54.109375 C19.50199219 54.74746094 19.56257813 55.38554687 19.625 56.04296875 C17.645 55.54796875 17.645 55.54796875 15.625 55.04296875 C15.625 54.38296875 15.625 53.72296875 15.625 53.04296875 C14.635 53.04296875 13.645 53.04296875 12.625 53.04296875 C12.625 52.38296875 12.625 51.72296875 12.625 51.04296875 C12.068125 50.98109375 11.51125 50.91921875 10.9375 50.85546875 C7.68705385 49.7134201 6.00912628 47.48669818 3.625 45.04296875 C0.6549164 43.23017206 -1.68411862 42.7618488 -5.140625 42.62890625 C-6.03007812 42.59023437 -6.91953125 42.5515625 -7.8359375 42.51171875 C-8.75632813 42.48078125 -9.67671875 42.44984375 -10.625 42.41796875 C-11.56085938 42.37929687 -12.49671875 42.340625 -13.4609375 42.30078125 C-15.76543054 42.20672031 -18.06992013 42.12107476 -20.375 42.04296875 C-19.83425611 38.73160926 -19.35597042 37.01473131 -17.4375 34.16796875 C-15.14995126 30.70198581 -14.33449665 28.04087144 -13.375 24.04296875 C-14.19291016 24.25953125 -14.19291016 24.25953125 -15.02734375 24.48046875 C-23.6955366 26.61417776 -30.80914547 26.5348537 -39.375 24.04296875 C-38.00694055 19.11795474 -35.63669461 17.65216953 -31.375 15.04296875 C-29.49609566 13.66790776 -29.49609566 13.66790776 -28.375 12.04296875 C-28.375 10.72296875 -28.375 9.40296875 -28.375 8.04296875 C-29.64150391 8.53216797 -29.64150391 8.53216797 -30.93359375 9.03125 C-34.61913861 10.11474162 -37.60578398 10.2763326 -41.4375 10.23046875 C-42.62472656 10.22402344 -43.81195313 10.21757812 -45.03515625 10.2109375 C-47.93619407 10.06503735 -50.55508735 9.70929972 -53.375 9.04296875 C-50.78488719 2.9993722 -45.38766417 -1.6777348 -39.39453125 -4.22265625 C-25.11271906 -8.606355 -13.29273091 -7.22792243 0 0 Z " fill="#FFFFFF" transform="translate(197.375,118.95703125)"></path><path d="M0 0 C0.495 0.99 0.495 0.99 1 2 C1.86625 2.4021875 1.86625 2.4021875 2.75 2.8125 C6.77579979 4.93722767 9.56039028 7.68117084 11 12 C2.72080945 13.83982012 -6.00455088 13.90743604 -14 11 C-14 12.65 -14 14.3 -14 16 C-13.01 16.33 -12.02 16.66 -11 17 C-9.29115995 18.62339805 -7.62553283 20.29319053 -6 22 C-5.401875 22.556875 -4.80375 23.11375 -4.1875 23.6875 C-3 25 -3 25 -3 27 C-12.5324592 29.77307904 -20.37679297 29.25010269 -30 27 C-28.12297673 31.89562693 -28.12297673 31.89562693 -25 36 C-25 37.32 -25 38.64 -25 40 C-25.88042969 40.18175781 -26.76085937 40.36351562 -27.66796875 40.55078125 C-28.82941406 40.80214844 -29.99085938 41.05351562 -31.1875 41.3125 C-32.33605469 41.55613281 -33.48460937 41.79976562 -34.66796875 42.05078125 C-37.91020681 42.97441999 -40.19448349 44.17201537 -43 46 C-43.886875 46.350625 -44.77375 46.70125 -45.6875 47.0625 C-48.1427942 47.88303421 -48.1427942 47.88303421 -50 50 C-50.99 50 -51.98 50 -53 50 C-53.226875 50.5775 -53.45375 51.155 -53.6875 51.75 C-55.35981581 54.6168271 -57.27219731 56.13711036 -60 58 C-60.99 58 -61.98 58 -63 58 C-65.22003933 45.51227876 -63.9492903 34.61682478 -59 23 C-58.32973605 21.33477675 -57.66205726 19.66850304 -57 18 C-56.34 18 -55.68 18 -55 18 C-54.773125 17.278125 -54.54625 16.55625 -54.3125 15.8125 C-52.68791195 12.33123989 -50.87447621 10.56868087 -48 8 C-47.40574219 7.44054687 -46.81148437 6.88109375 -46.19921875 6.3046875 C-32.88385822 -5.28042844 -15.94808611 -6.68161406 0 0 Z " fill="#FFFFFF" transform="translate(283,116)"></path><path d="M0 0 C2.3125 0.1875 2.3125 0.1875 5 1 C6.5625 3.3125 6.5625 3.3125 8 6 C8.721875 6.556875 9.44375 7.11375 10.1875 7.6875 C12.40084345 10.51142095 12.12344495 11.44586704 11.9375 14.9375 C11.81084667 18.67652656 11.82089266 19.71342826 13.875 23 C17.5173068 25.33107635 20.46877818 25.81310985 24.68359375 26.47265625 C27.75784812 27.17252866 29.22707022 28.42119305 31 31 C31 31.66 31 32.32 31 33 C31.66 33 32.32 33 33 33 C33.66 34.65 34.32 36.3 35 38 C35.64145116 37.99723462 36.28290232 37.99446924 36.94379139 37.99162006 C52.54200599 37.9254059 68.14017179 37.87574175 83.73849201 37.84456348 C91.28168595 37.82908567 98.82478615 37.8079788 106.36791992 37.77368164 C112.94148561 37.74380713 119.51498343 37.72443165 126.08861512 37.71773452 C129.57026869 37.71381891 133.05172806 37.70459803 136.53331947 37.68280983 C140.41718854 37.65870063 144.30086653 37.65802875 148.18481445 37.65942383 C149.34287094 37.648638 150.50092743 37.63785217 151.69407654 37.6267395 C152.74996979 37.63086349 153.80586304 37.63498749 154.89375305 37.63923645 C155.81278066 37.63647107 156.73180826 37.63370569 157.67868519 37.63085651 C160 38 160 38 161.80742168 39.32332897 C163.58776789 41.82635528 163.19870273 44.01945909 163 47 C162.34 47 161.68 47 161 47 C161 47.66 161 48.32 161 49 C158.47987848 50.26006076 156.72434541 50.14287586 153.90252686 50.1673584 C152.28327049 50.18459457 152.28327049 50.18459457 150.63130188 50.20217896 C149.44167343 50.20958099 148.25204498 50.21698303 147.02636719 50.22460938 C145.77750229 50.23599945 144.52863739 50.24738953 143.2419281 50.25912476 C139.09359342 50.29424902 134.94529138 50.32090438 130.796875 50.34375 C130.09108464 50.34769587 129.38529428 50.35164173 128.65811634 50.35570717 C122.00146197 50.39212729 115.34479702 50.42357105 108.68807602 50.44481659 C100.17430089 50.47239064 91.66135898 50.52315272 83.14793086 50.60529089 C77.16144272 50.66109228 71.17518056 50.69005391 65.18844151 50.6992898 C61.61304864 50.70554619 58.03863253 50.72365363 54.46352386 50.77067566 C50.47250698 50.82251734 46.48257793 50.8189006 42.49121094 50.81054688 C41.30967941 50.83414276 40.12814789 50.85773865 38.91081238 50.88204956 C31.05900792 50.80237997 31.05900792 50.80237997 27.99030304 48.47731018 C26.4806786 46.72261232 25.25173353 44.94235636 24 43 C23.13375 42.154375 22.2675 41.30875 21.375 40.4375 C18.82426765 37.81964312 17.02400813 35.0360122 15 32 C13.35511706 30.31183067 11.68662458 28.64646685 10 27 C8.44616563 25.22533645 6.92761791 23.42563641 5.41796875 21.61328125 C3.95274647 19.8625239 3.95274647 19.8625239 1.75 18.125 C-0.97469879 14.81643719 -1.68769018 11.23037849 -2 7 C-1.60872196 4.44737659 -0.9311266 2.43127501 0 0 Z " fill="#FFFFFF" transform="translate(124,279)"></path><path d="M0 0 C0 0.66 0 1.32 0 2 C0.928125 2.2784375 0.928125 2.2784375 1.875 2.5625 C5.05602866 4.71437233 5.19451947 7.37533763 6 11 C6.66 11 7.32 11 8 11 C10.38251515 20.23224622 8.93514968 27.01024554 4.125 35.1875 C1.96810837 38.0422095 -0.02711381 40.01807587 -3 42 C-3.99 42 -4.98 42 -6 42 C-6 42.66 -6 43.32 -6 44 C-12.35337785 45.69423409 -19.64662215 45.69423409 -26 44 C-26 43.34 -26 42.68 -26 42 C-27.65 41.67 -29.3 41.34 -31 41 C-31.495 39.515 -31.495 39.515 -32 38 C-32.61875 37.731875 -33.2375 37.46375 -33.875 37.1875 C-36.9676165 35.45927313 -37.68849627 33.21318415 -39 30 C-39 29.01 -39 28.02 -39 27 C-39.66 27 -40.32 27 -41 27 C-41.82025723 17.44552223 -40.7032533 10.83543286 -35 3 C-25.09264433 -8.22159672 -11.9720376 -6.37294777 0 0 Z " fill="#FFFFFF" transform="translate(367,140)"></path><path d="M0 0 C7.79309848 3.62649137 12.59330761 9.11081762 16 17 C16 17.66 16 18.32 16 19 C16.66 19 17.32 19 18 19 C18.67493341 21.22667765 19.33963044 23.45645977 20 25.6875 C20.37125 26.92886719 20.7425 28.17023438 21.125 29.44921875 C21.87703457 32.5010019 22.19034899 34.88898362 22 38 C22.66 38 23.32 38 24 38 C24.495 42.455 24.495 42.455 25 47 C6.85 47 -11.3 47 -30 47 C-30.33 45.35 -30.66 43.7 -31 42 C-30.34 42 -29.68 42 -29 42 C-28.96261719 41.40574219 -28.92523438 40.81148438 -28.88671875 40.19921875 C-28.3576382 33.52865413 -26.93377584 27.39727101 -25 21 C-24.34 21 -23.68 21 -23 21 C-22.896875 20.29875 -22.79375 19.5975 -22.6875 18.875 C-21.90640997 15.60862353 -20.57941257 12.9528148 -19 10 C-18.34 10 -17.68 10 -17 10 C-16.690625 9.38125 -16.38125 8.7625 -16.0625 8.125 C-13.04269542 2.08539083 -6.92413402 -1.29827513 0 0 Z " fill="#FFFFFF" transform="translate(316,217)"></path><path d="M0 0 C0 0.66 0 1.32 0 2 C0.86625 2.185625 0.86625 2.185625 1.75 2.375 C8.30199649 4.19499903 11.66900563 8.21537139 15 14 C17.95247321 21.29877176 20.41179088 29.07614516 20 37 C15.11247581 37 13.81391876 35.97485663 10 33 C6.68463572 29.6139289 4.00482843 26.31227246 2 22 C1.01 22 0.02 22 -1 22 C-0.505 30.415 -0.505 30.415 0 39 C-10.3923352 35.53588827 -14.23598647 32.18037413 -20 23 C-21.32 23.33 -22.64 23.66 -24 24 C-24.04898437 24.58007812 -24.09796875 25.16015625 -24.1484375 25.7578125 C-24.59649405 30.43923092 -25.298021 34.57485459 -27 39 C-30.44696406 37.85101198 -31.81567858 36.88642473 -34 34 C-33.75 31.3125 -33.75 31.3125 -33 28 C-32.33985225 21.65331635 -32.91620344 17.03877668 -37 12 C-40.20899603 8.68550273 -43.58547124 6.42822989 -48 5 C-48 4.34 -48 3.68 -48 3 C-33.22918248 -4.35732736 -15.57816038 -7.78908019 0 0 Z " fill="#FFFFFF" transform="translate(285,164)"></path><path d="M0 0 C1.25425781 0.00902344 2.50851563 0.01804688 3.80078125 0.02734375 C4.75339844 0.03894531 5.70601562 0.05054688 6.6875 0.0625 C5.44692153 3.9990542 4.24932308 6.83237524 1.6875 10.0625 C1.3575 11.0525 1.0275 12.0425 0.6875 13.0625 C2.3890625 13.5265625 2.3890625 13.5265625 4.125 14 C7.6875 15.0625 7.6875 15.0625 8.6875 16.0625 C11.46226893 16.27480963 14.22107133 16.43919503 17 16.5625 C18.53792925 16.63176454 20.07570392 16.70456945 21.61328125 16.78125 C22.29817627 16.81154297 22.98307129 16.84183594 23.6887207 16.87304688 C25.76869583 17.0701961 27.67623165 17.50658081 29.6875 18.0625 C29.6875 18.7225 29.6875 19.3825 29.6875 20.0625 C28.635625 20.475 27.58375 20.8875 26.5 21.3125 C19.96682818 24.15759095 16.87745455 27.90258777 13.6875 34.0625 C12.0625 37 12.0625 37 10.6875 39.0625 C10.0275 39.0625 9.3675 39.0625 8.6875 39.0625 C8.6875 39.7225 8.6875 40.3825 8.6875 41.0625 C6.2125 41.5575 6.2125 41.5575 3.6875 42.0625 C1.98665181 36.73317568 1.16736031 31.63140517 0.6875 26.0625 C-1.89412254 26.42895913 -3.01299058 26.68201855 -4.65625 28.76953125 C-5.22859375 29.81173828 -5.22859375 29.81173828 -5.8125 30.875 C-7.67593763 34.05884895 -9.3915315 36.7257252 -12.3125 39.0625 C-13.3025 39.0625 -14.2925 39.0625 -15.3125 39.0625 C-15.3125 39.7225 -15.3125 40.3825 -15.3125 41.0625 C-18.7775 41.5575 -18.7775 41.5575 -22.3125 42.0625 C-21.9825 36.4525 -21.6525 30.8425 -21.3125 25.0625 C-22.3025 25.0625 -23.2925 25.0625 -24.3125 25.0625 C-24.42464844 25.65289062 -24.53679687 26.24328125 -24.65234375 26.8515625 C-26.62561968 33.46028543 -33.66194854 38.58817444 -39.3125 42.0625 C-39.9725 42.0625 -40.6325 42.0625 -41.3125 42.0625 C-41.72386629 34.18559743 -40.748668 27.55951701 -38.3125 20.0625 C-37.6525 20.0625 -36.9925 20.0625 -36.3125 20.0625 C-36.23 19.505625 -36.1475 18.94875 -36.0625 18.375 C-34.30548159 12.95752657 -29.46410571 8.31343355 -24.625 5.5 C-16.42478216 1.9414149 -8.98622194 -0.08398338 0 0 Z " fill="#FFFFFF" transform="translate(170.3125,148.9375)"></path><path d="M0 0 C0.67546875 0.20496094 1.3509375 0.40992188 2.046875 0.62109375 C2.93890625 0.89050781 3.8309375 1.15992188 4.75 1.4375 C5.63171875 1.70433594 6.5134375 1.97117188 7.421875 2.24609375 C9.60565835 2.88468494 11.78835498 3.46775833 14 4 C14 4.66 14 5.32 14 6 C14.928125 6.144375 15.85625 6.28875 16.8125 6.4375 C27.39648057 9.41222366 38.55522611 21.94194937 43.8125 31.1875 C45 34 45 34 45 37 C45.66 37 46.32 37 47 37 C47.66 39.64 48.32 42.28 49 45 C44.46083081 44.88203546 39.92189358 44.75780887 35.38305664 44.62768555 C33.83785711 44.58428015 32.29260786 44.54260929 30.74731445 44.50268555 C28.53060904 44.44511801 26.3141552 44.38138576 24.09765625 44.31640625 C23.05545677 44.29133751 23.05545677 44.29133751 21.99220276 44.26576233 C17.11387171 44.11387171 17.11387171 44.11387171 16 43 C15.45631665 40.27271884 14.96033059 37.55397377 14.5 34.8125 C14.36980469 34.05646484 14.23960937 33.30042969 14.10546875 32.52148438 C13.38913359 28.35009833 12.6925693 24.17539376 12 20 C11.34 20 10.68 20 10 20 C8.66666667 16 7.33333333 12 6 8 C5.34 8 4.68 8 4 8 C2.68 5.36 1.36 2.72 0 0 Z " fill="#FFFFFF" transform="translate(328,219)"></path><path d="M0 0 C-1.33333333 2.66666667 -2.66666667 5.33333333 -4 8 C-4.66 8 -5.32 8 -6 8 C-6.17015625 8.52207031 -6.3403125 9.04414063 -6.515625 9.58203125 C-8.73276776 16.31601273 -8.73276776 16.31601273 -9.984375 19.51953125 C-12.98513369 27.21763142 -14.55471392 34.88668953 -16 43 C-19.41751653 44.13917218 -22.03487937 44.11338481 -25.63671875 44.09765625 C-26.93544922 44.09443359 -28.23417969 44.09121094 -29.57226562 44.08789062 C-30.94401108 44.07953531 -32.31575587 44.07107037 -33.6875 44.0625 C-35.07096195 44.05748335 -36.45442563 44.05292073 -37.83789062 44.04882812 C-41.22530395 44.03702529 -44.61263033 44.02056019 -48 44 C-47.201404 40.61476511 -46.05215726 37.61616843 -44.625 34.4375 C-44.20476562 33.48746094 -43.78453125 32.53742188 -43.3515625 31.55859375 C-42.09352634 29.1770513 -40.94775598 27.8036754 -39 26 C-38.525625 25.154375 -38.05125 24.30875 -37.5625 23.4375 C-35.84134161 20.7524929 -34.77595504 20.34320405 -32 19 C-31.72285156 18.401875 -31.44570313 17.80375 -31.16015625 17.1875 C-26.94852644 9.24637983 -16.07413784 4.1807525 -7.921875 1.25390625 C-5.18813361 0.42114889 -2.86801468 0 0 0 Z " fill="#FFFFFF" transform="translate(297,220)"></path><path d="M0 0 C2.91575623 -0.38095093 2.91575623 -0.38095093 6.69702148 -0.38818359 C7.72898651 -0.39606903 7.72898651 -0.39606903 8.78179932 -0.40411377 C11.06179339 -0.41734492 13.34109226 -0.40856431 15.62109375 -0.3984375 C17.20288731 -0.40045759 18.78467997 -0.40336848 20.36647034 -0.40713501 C23.68458914 -0.41156276 27.00246593 -0.4051139 30.32055664 -0.39111328 C34.57572706 -0.37403486 38.8303293 -0.38385086 43.08547878 -0.40183067 C46.35313705 -0.41266841 49.62066051 -0.40922203 52.88832283 -0.4014473 C54.45722584 -0.39944452 56.02614106 -0.40190728 57.59502983 -0.40888596 C59.78821108 -0.41649898 61.98047138 -0.404899 64.17358398 -0.38818359 C66.04650368 -0.38460342 66.04650368 -0.38460342 67.95726013 -0.38095093 C71 0 71 0 72.91493225 1.35629272 C74.40825126 3.61843656 74.21477676 5.35108667 74 8 C73.34 8 72.68 8 72 8 C72 8.66 72 9.32 72 10 C68.50226371 12.14715558 65.70630357 12.25308584 61.64257812 12.25878906 C60.35444214 12.26509338 59.06630615 12.27139771 57.73913574 12.27789307 C56.33650577 12.27431317 54.93387704 12.27021118 53.53125 12.265625 C52.08923273 12.26697278 50.64721591 12.26891425 49.2052002 12.27142334 C46.18574693 12.27436932 43.16641214 12.27009396 40.14697266 12.26074219 C36.27992573 12.24934787 32.41315644 12.25591017 28.54611969 12.26788712 C25.56925369 12.27511997 22.59245332 12.27281125 19.61558533 12.26763153 C18.1898546 12.26629898 16.76411789 12.26792894 15.33839417 12.27259064 C13.34473792 12.277679 11.35106074 12.26854622 9.35742188 12.25878906 C8.22365112 12.25719788 7.08988037 12.25560669 5.92175293 12.25396729 C3.02531317 12.00220029 1.34856414 11.69858773 -1 10 C-1.875 6.5625 -1.875 6.5625 -2 3 C-1.34 2.01 -0.68 1.02 0 0 Z " fill="#FFFFFF" transform="translate(142,290)"></path><path d="M0 0 C7.88123515 1.12589074 7.88123515 1.12589074 11.5625 2.875 C12.32820313 3.2359375 13.09390625 3.596875 13.8828125 3.96875 C14.58148438 4.3090625 15.28015625 4.649375 16 5 C16.969375 5.45375 17.93875 5.9075 18.9375 6.375 C40.375 17.75 40.375 17.75 45 27 C30.15 27 15.3 27 0 27 C0 18.09 0 9.18 0 0 Z " fill="#FFFFFF" transform="translate(315,334)"></path><path d="M0 0 C16.69846494 -0.18703549 33.39658919 -0.32802918 50.09584904 -0.41449738 C57.84998185 -0.45571679 65.60346316 -0.51189307 73.35717773 -0.60351562 C80.11683275 -0.68335357 86.87601591 -0.7348889 93.63612932 -0.75270796 C97.21455244 -0.76312179 100.7916259 -0.78752113 104.36961555 -0.84584045 C108.36818945 -0.91048401 112.36443047 -0.91191316 116.36352539 -0.90820312 C117.54460373 -0.93696533 118.72568207 -0.96572754 119.94255066 -0.99536133 C127.78639522 -0.91658744 127.78639522 -0.91658744 131.23531914 1.68824768 C133.04947721 3.71137203 134.54505904 5.70771247 136 8 C136.4990941 8.76267937 136.99818819 9.52535873 137.51240635 10.3111496 C140.8385116 15.5912182 142.14178733 20.8644199 143 27 C141.35 27 139.7 27 138 27 C137.67128906 26.07380859 137.67128906 26.07380859 137.3359375 25.12890625 C134.45161273 17.42564864 131.11582548 9.48177089 123.95689201 4.85533333 C119.82737663 3.05037316 115.30487522 3.43881882 110.87329102 3.46655273 C109.76199829 3.45793716 108.65070557 3.44932159 107.5057373 3.44044495 C103.83822225 3.41777268 100.17147054 3.42452683 96.50390625 3.43359375 C93.95092034 3.42835865 91.39793637 3.42208259 88.84495544 3.41481018 C83.4960621 3.40440348 78.14744497 3.40864137 72.79858398 3.42358398 C66.62718 3.44050222 60.45648351 3.42467089 54.28515679 3.3923611 C48.33387064 3.36239087 42.38280357 3.36049172 36.43144035 3.3698597 C33.90570086 3.37067939 31.37994666 3.3638127 28.85424995 3.34908867 C25.32101162 3.33164918 21.78928147 3.34618315 18.25610352 3.36889648 C16.69499092 3.35135818 16.69499092 3.35135818 15.1023407 3.33346558 C8.41955164 3.42077257 4.99762644 4.48935145 0 9 C-1.45050496 11.13375737 -1.45050496 11.13375737 -2 13 C-2.66 13 -3.32 13 -4 13 C-4.18175781 13.59167969 -4.36351562 14.18335938 -4.55078125 14.79296875 C-7.4137931 23.79310345 -7.4137931 23.79310345 -10 27 C-11.32 27 -12.64 27 -14 27 C-13.39891424 21.34979382 -11.92471317 16.33835539 -10 11 C-9.34 11 -8.68 11 -8 11 C-7.7525 10.2575 -7.505 9.515 -7.25 8.75 C-5.89534961 5.76976913 -4.4898459 4.10080748 -2 2 C-1.34 2 -0.68 2 0 2 C0 1.34 0 0.68 0 0 Z " fill="#FFFFFF" transform="translate(153,334)"></path><path d="M0 0 C3.20674003 2.81804427 4.85449403 5.50899593 5.53125 9.75 C5.61581992 18.03785211 5.61581992 18.03785211 2.875 21.875 C1.946875 22.514375 1.01875 23.15375 0.0625 23.8125 C-1.1440625 24.7096875 -1.1440625 24.7096875 -2.375 25.625 C-5.64650839 27.14106486 -7.35482676 27.37448796 -10.9375 26.8125 C-15.45217189 24.68596296 -19.17760285 22.67191752 -20.9375 17.8125 C-21.49383477 12.96443986 -21.55597647 8.37496688 -19.75 3.8125 C-14.40409811 -2.08642622 -7.30828542 -2.95441325 0 0 Z " fill="#FFFFFF" transform="translate(225.9375,198.1875)"></path><path d="M0 0 C0.85464844 -0.01417969 1.70929688 -0.02835938 2.58984375 -0.04296875 C5.99153861 0.27409286 8.0758422 1.25017509 10.546875 3.59765625 C14.24974055 8.43195294 14.67409808 12.19383881 14.0625 18.1875 C13.44761719 18.42984375 12.83273438 18.6721875 12.19921875 18.921875 C6.20266626 21.35527068 6.20266626 21.35527068 2.0625 26.1875 C1.4025 26.1875 0.7425 26.1875 0.0625 26.1875 C0.0625 26.8475 0.0625 27.5075 0.0625 28.1875 C-5.38000545 27.79874961 -8.10302996 26.02197004 -11.9375 22.1875 C-14.22681019 18.23323695 -14.25975634 14.69908878 -13.9375 10.1875 C-12.81924107 6.1804055 -11.10333243 3.87366085 -7.9375 1.1875 C-5.02663331 0.2172111 -3.03526315 0.02282153 0 0 Z " fill="#FFFFFF" transform="translate(201.9375,173.8125)"></path><path d="M0 0 C4.04822294 1.34940765 5.45210569 3.64750748 8 7 C9.4943791 11.4831373 9.21270986 15.48064386 8.5625 20.125 C6.220089 24.43503624 2.47447504 26.19744856 -2 28 C-2.99 28 -3.98 28 -5 28 C-5 27.34 -5 26.68 -5 26 C-5.66 26 -6.32 26 -7 26 C-7.53625 25.236875 -8.0725 24.47375 -8.625 23.6875 C-11.78933479 20.10680536 -14.48285759 19.43042843 -19 18 C-19 15.03 -19 12.06 -19 9 C-18.34 9 -17.68 9 -17 9 C-16.773125 8.2575 -16.54625 7.515 -16.3125 6.75 C-12.80509005 -0.59885894 -7.35837078 -0.76078071 0 0 Z " fill="#FFFFFF" transform="translate(239,174)"></path><path d="M0 0 C3 1.75 3 1.75 5 4 C5 5.32 5 6.64 5 8 C2.625 8.125 2.625 8.125 0 8 C-0.66 7.34 -1.32 6.68 -2 6 C-3.32 6 -4.64 6 -6 6 C-6 6.66 -6 7.32 -6 8 C-5.28972656 8.27714844 -4.57945312 8.55429687 -3.84765625 8.83984375 C-2.92855469 9.20207031 -2.00945312 9.56429688 -1.0625 9.9375 C-0.14597656 10.29714844 0.77054688 10.65679687 1.71484375 11.02734375 C4 12 4 12 5 13 C5.6496875 11.824375 5.6496875 11.824375 6.3125 10.625 C8 8 8 8 11 6 C15.28482877 5.44455923 17.29695542 5.53628975 20.9375 7.9375 C23.36416141 11.54072452 23.68334281 13.65127555 23.4140625 17.91015625 C23 20 23 20 21.4375 22.5 C18.18533206 24.50133412 15.81267501 24.93311096 12 25 C9.1875 23.625 9.1875 23.625 7 22 C6.34 21.67 5.68 21.34 5 21 C4.59523437 21.47695313 4.19046875 21.95390625 3.7734375 22.4453125 C0.68071926 25.15655007 -3.01123414 25.105152 -7 25 C-9.9375 23.9375 -9.9375 23.9375 -12 22 C-13.3125 18.8125 -13.3125 18.8125 -14 16 C-11.125 15.8125 -11.125 15.8125 -8 16 C-7.34 16.99 -6.68 17.98 -6 19 C-4.35 18.67 -2.7 18.34 -1 18 C-1.8097439 15.81281487 -1.8097439 15.81281487 -3.99609375 15.25390625 C-5.62060528 14.79384458 -7.24560527 14.33550414 -8.87109375 13.87890625 C-11 13 -11 13 -13 10 C-13.4375 7.0625 -13.4375 7.0625 -13 4 C-9.35007748 -0.33428299 -5.36949645 -1.08255977 0 0 Z M12 11 C11.32326553 14.40320934 11.32326553 14.40320934 11 18 C11.66 18.66 12.32 19.32 13 20 C15.10820797 19.6814823 15.10820797 19.6814823 17 19 C17.6878236 16.64632287 17.6878236 16.64632287 18 14 C17.34 13.01 16.68 12.02 16 11 C14.68 11 13.36 11 12 11 Z " fill="#FFFFFF" transform="translate(173,364)"></path><path d="M0 0 C5.50976413 -0.19332506 9.70274773 0.2663538 15 2 C17.31 2.66 19.62 3.32 22 4 C22 13.57 22 23.14 22 33 C18.7 33 15.4 33 12 33 C11.34 29.37 10.68 25.74 10 22 C9.34 22 8.68 22 8 22 C7.32880451 20.5437455 6.66318193 19.08492133 6 17.625 C5.62875 16.81289063 5.2575 16.00078125 4.875 15.1640625 C4 13 4 13 4 11 C3.34 11 2.68 11 2 11 C-0.1875 8.75 -0.1875 8.75 -2 6 C-1.7915954 3.56861295 -1.08574545 2.17149089 0 0 Z " fill="#FFFFFF" transform="translate(289,328)"></path><path d="M0 0 C1.98 0 3.96 0 6 0 C6 7.92 6 15.84 6 24 C4.02 24 2.04 24 0 24 C-1.010625 24.2475 -2.02125 24.495 -3.0625 24.75 C-6 25 -6 25 -8.8125 23.5625 C-11.71519071 20.16220516 -12.31443589 17.42759723 -12 13 C-9.87640449 7.43820225 -9.87640449 7.43820225 -7 6 C-5.00039988 5.960008 -2.99952758 5.95653201 -1 6 C-0.67 4.02 -0.34 2.04 0 0 Z M-5 11 C-5.67673447 14.40320934 -5.67673447 14.40320934 -6 18 C-5.34 18.66 -4.68 19.32 -4 20 C-1.89179203 19.6814823 -1.89179203 19.6814823 0 19 C0.6878236 16.64632287 0.6878236 16.64632287 1 14 C0.34 13.01 -0.32 12.02 -1 11 C-2.32 11 -3.64 11 -5 11 Z " fill="#FFFFFF" transform="translate(292,364)"></path><path d="M0 0 C1.65 0 3.3 0 5 0 C5.33 2.31 5.66 4.62 6 7 C6.33 6.67 6.66 6.34 7 6 C10.375 5.6875 10.375 5.6875 14 6 C16.65472654 8.42493245 16.98650917 9.84098803 17.29296875 13.453125 C17.25816406 14.70609375 17.22335938 15.9590625 17.1875 17.25 C17.16042969 18.51328125 17.13335937 19.7765625 17.10546875 21.078125 C17.07066406 22.04234375 17.03585938 23.0065625 17 24 C15.02 24 13.04 24 11 24 C10.67 20.04 10.34 16.08 10 12 C9.01 12 8.02 12 7 12 C6.67 15.96 6.34 19.92 6 24 C4.02 24 2.04 24 0 24 C0 16.08 0 8.16 0 0 Z " fill="#FFFFFF" transform="translate(229,364)"></path><path d="M0 0 C0.680625 -0.00515625 1.36125 -0.0103125 2.0625 -0.015625 C4 0.25 4 0.25 7 2.25 C8.14077657 5.67232972 8.09815117 8.33673217 8.0625 11.9375 C8.05347656 13.11699219 8.04445313 14.29648437 8.03515625 15.51171875 C8.02355469 16.41535156 8.01195312 17.31898438 8 18.25 C5.92002174 18.5265289 3.8356692 18.77030075 1.75 19 C0.58984375 19.13921875 -0.5703125 19.2784375 -1.765625 19.421875 C-5 19.25 -5 19.25 -7.41796875 17.4609375 C-9 15.25 -9 15.25 -9.0625 12.125 C-8 9.25 -8 9.25 -5.75 7.875 C-3.05451551 7.26238989 -0.75279705 7.09269731 2 7.25 C1.67 6.59 1.34 5.93 1 5.25 C-3.455 5.745 -3.455 5.745 -8 6.25 C-6.73338087 1.18352348 -5.01839192 -0.03801812 0 0 Z M-2 11.25 C-2 12.57 -2 13.89 -2 15.25 C-0.68 14.59 0.64 13.93 2 13.25 C2 12.59 2 11.93 2 11.25 C0.68 11.25 -0.64 11.25 -2 11.25 Z " fill="#FFFFFF" transform="translate(316,369.75)"></path><path d="M0 0 C6.18004417 2.38774434 8.80013948 11.02607696 11.5625 16.75 C11.87687012 17.39146973 12.19124023 18.03293945 12.51513672 18.69384766 C14.18803982 22.27094363 15.24275619 25.09838676 14.75 29.0625 C13.75 30.0625 13.75 30.0625 11.3125 30.3125 C10.466875 30.23 9.62125 30.1475 8.75 30.0625 C6.75 27.0625 6.75 27.0625 6.75 24.0625 C6.09 24.0625 5.43 24.0625 4.75 24.0625 C4.0791288 22.4392313 3.41342971 20.81382422 2.75 19.1875 C2.37875 18.28257812 2.0075 17.37765625 1.625 16.4453125 C0.75 14.0625 0.75 14.0625 0.75 12.0625 C0.09 12.0625 -0.57 12.0625 -1.25 12.0625 C-3.04760213 8.24259548 -3.53743526 5.27821713 -3.25 1.0625 C-2.25 0.0625 -2.25 0.0625 0 0 Z " fill="#FFFFFF" transform="translate(109.25,236.9375)"></path><path d="M0 0 C1.98 0 3.96 0 6 0 C6.33 4.29 6.66 8.58 7 13 C8.32 13 9.64 13 11 13 C11 8.71 11 4.42 11 0 C12.98 0 14.96 0 17 0 C17 5.94 17 11.88 17 18 C14.69 18 12.38 18 10 18 C9.113125 18.20625 8.22625 18.4125 7.3125 18.625 C4.48311107 19.08381983 3.34384301 18.5904649 1 17 C-0.53266582 13.93466836 -0.10276471 10.73245728 -0.0625 7.375 C-0.05798828 6.66859375 -0.05347656 5.9621875 -0.04882812 5.234375 C-0.03703875 3.48954725 -0.01910324 1.744763 0 0 Z " fill="#FFFFFF" transform="translate(198,370)"></path><path d="M0 0 C13.39066339 -0.49140049 13.39066339 -0.49140049 15.9375 1.5625 C17.3921441 4.8996247 17.28820762 7.6245257 17.1875 11.25 C17.16042969 12.51328125 17.13335937 13.7765625 17.10546875 15.078125 C17.07066406 16.04234375 17.03585937 17.0065625 17 18 C15.02 18 13.04 18 11 18 C10.67 14.04 10.34 10.08 10 6 C9.01 6 8.02 6 7 6 C6.67 9.96 6.34 13.92 6 18 C4.02 18 2.04 18 0 18 C0 12.06 0 6.12 0 0 Z " fill="#FFFFFF" transform="translate(325,370)"></path><path d="M0 0 C13.39066339 -0.49140049 13.39066339 -0.49140049 15.9375 1.5625 C17.3921441 4.8996247 17.28820762 7.6245257 17.1875 11.25 C17.16042969 12.51328125 17.13335937 13.7765625 17.10546875 15.078125 C17.07066406 16.04234375 17.03585937 17.0065625 17 18 C15.02 18 13.04 18 11 18 C10.67 14.04 10.34 10.08 10 6 C9.01 6 8.02 6 7 6 C6.67 9.96 6.34 13.92 6 18 C4.02 18 2.04 18 0 18 C0 12.06 0 6.12 0 0 Z " fill="#FFFFFF" transform="translate(262,370)"></path><path d="M0 0 C1.98 0 3.96 0 6 0 C6 1.32 6 2.64 6 4 C6.99 4 7.98 4 9 4 C9 5.65 9 7.3 9 9 C8.01 9 7.02 9 6 9 C6 11.97 6 14.94 6 18 C6.99 18 7.98 18 9 18 C8.67 19.65 8.34 21.3 8 23 C2.25 22.25 2.25 22.25 0 20 C-0.1953125 17.3984375 -0.1953125 17.3984375 -0.125 14.375 C-0.10695312 13.37210937 -0.08890625 12.36921875 -0.0703125 11.3359375 C-0.04710937 10.56507813 -0.02390625 9.79421875 0 9 C-0.66 9 -1.32 9 -2 9 C-2 7.35 -2 5.7 -2 4 C-1.34 4 -0.68 4 0 4 C0 2.68 0 1.36 0 0 Z " fill="#FFFFFF" transform="translate(218,366)"></path><path d="M0 0 C1.98 0 3.96 0 6 0 C6 7.92 6 15.84 6 24 C4.02 24 2.04 24 0 24 C0 16.08 0 8.16 0 0 Z " fill="#FFFFFF" transform="translate(254,364)"></path><path d="M0 0 C1.98 0 3.96 0 6 0 C6 5.94 6 11.88 6 18 C4.02 18 2.04 18 0 18 C0 12.06 0 6.12 0 0 Z " fill="#FFFFFF" transform="translate(300,370)"></path><path d="M0 0 C4.95 0 9.9 0 15 0 C15 1.98 15 3.96 15 6 C10.05 6 5.1 6 0 6 C0 4.02 0 2.04 0 0 Z " fill="#FFFFFF" transform="translate(307,157)"></path><path d="M0 0 C1.65 0 3.3 0 5 0 C6 1 6 1 6.09765625 4.16015625 C6.08605469 5.44792969 6.07445312 6.73570313 6.0625 8.0625 C6.05347656 9.35285156 6.04445313 10.64320312 6.03515625 11.97265625 C6.02355469 12.97167969 6.01195312 13.97070312 6 15 C4.02 15 2.04 15 0 15 C0 10.05 0 5.1 0 0 Z " fill="#FFFFFF" transform="translate(348,116)"></path><path d="M0 0 C4.26290179 0.47365575 6.21548958 2.92238322 9 6 C11 9 11 9 11 13 C7.95430707 13.27736608 6.39597714 13.24601721 3.76171875 11.609375 C3.07722656 10.99578125 2.39273437 10.3821875 1.6875 9.75 C0.99011719 9.14671875 0.29273438 8.5434375 -0.42578125 7.921875 C-2 6 -2 6 -2 2 C-1.34 2 -0.68 2 0 2 C0 1.34 0 0.68 0 0 Z " fill="#FFFFFF" transform="translate(372,179)"></path><path d="M0 0 C2.625 -0.1875 2.625 -0.1875 5 0 C5.3125 2.1875 5.3125 2.1875 5 5 C2.34105804 8.10209896 -0.57856279 10.75836872 -4 13 C-4.66 13 -5.32 13 -6 13 C-6 12.34 -6 11.68 -6 11 C-6.66 11 -7.32 11 -8 11 C-7.66141506 7.83987387 -7.05398412 7.04567887 -4.5625 4.9375 C-3.716875 4.298125 -2.87125 3.65875 -2 3 C-1.34 2.01 -0.68 1.02 0 0 Z " fill="#FFFFFF" transform="translate(378,128)"></path><path d="M0 0 C1.32 0.66 2.64 1.32 4 2 C3.58485103 6.8434046 1.53791301 8.81587829 -2 12 C-2.33 12.33 -2.66 12.66 -3 13 C-4.66617115 13.04063832 -6.33388095 13.042721 -8 13 C-8.3125 10.8125 -8.3125 10.8125 -8 8 C-5.6875 5.375 -5.6875 5.375 -3 3 C-2.401875 2.401875 -1.80375 1.80375 -1.1875 1.1875 C-0.795625 0.795625 -0.40375 0.40375 0 0 Z " fill="#FFFFFF" transform="translate(327,179)"></path><path d="M0 0 C3.13595379 -0.32553153 4.52487 -0.37215505 7.0546875 1.609375 C7.95574219 2.66898438 7.95574219 2.66898438 8.875 3.75 C9.49117188 4.44609375 10.10734375 5.1421875 10.7421875 5.859375 C12 8 12 8 11.6953125 10.265625 C11.46585937 10.83796875 11.23640625 11.4103125 11 12 C9.68 12.33 8.36 12.66 7 13 C5.81836949 11.78521149 4.65517165 10.55247592 3.5 9.3125 C2.8503125 8.62800781 2.200625 7.94351563 1.53125 7.23828125 C-0.27813784 4.59343628 -0.3077917 3.13837611 0 0 Z " fill="#FFFFFF" transform="translate(319,128)"></path><path d="M0 0 C1.98 0 3.96 0 6 0 C6.02685938 2.14576637 6.04633088 4.29162645 6.0625 6.4375 C6.07410156 7.63246094 6.08570313 8.82742187 6.09765625 10.05859375 C6 13 6 13 5 14 C3.35 14 1.7 14 0 14 C0 9.38 0 4.76 0 0 Z " fill="#FFFFFF" transform="translate(348,190)"></path><path d="M0 0 C4.29 0 8.58 0 13 0 C13.33 1.65 13.66 3.3 14 5 C13 6 13 6 9.83984375 6.09765625 C7.90818359 6.08025391 7.90818359 6.08025391 5.9375 6.0625 C4.64714844 6.05347656 3.35679687 6.04445312 2.02734375 6.03515625 C1.02832031 6.02355469 0.02929688 6.01195312 -1 6 C-0.67 4.02 -0.34 2.04 0 0 Z " fill="#FFFFFF" transform="translate(381,157)"></path><path d="M0 0 C1.65 0.33 3.3 0.66 5 1 C4.6875 2.9375 4.6875 2.9375 4 5 C3.01 5.33 2.02 5.66 1 6 C0.34 5.67 -0.32 5.34 -1 5 C-0.67 3.35 -0.34 1.7 0 0 Z " fill="#FFFFFF" transform="translate(301,363)"></path><path d="" fill="#FFFFFF" transform="translate(0,0)"></path></svg>