<svg xmlns="http://www.w3.org/2000/svg" width="500" height="500"><path d="M0 0 C1.25329102 -0.00241196 2.50658203 -0.00482391 3.79785156 -0.00730896 C7.1090342 -0.00608479 10.41900755 0.0188341 13.72998047 0.0524292 C15.74864877 0.0663969 17.76647468 0.06282332 19.78515625 0.05249023 C23.69048934 0.03364118 27.5946864 0.04318494 31.5 0.0625 C33.29099121 0.0550602 33.29099121 0.0550602 35.11816406 0.04747009 C43.73890437 0.16812762 50.16967504 1.49612191 56.75 7.25390625 C59.50039549 10.52000089 59.87218412 12.07601784 59.8125 16.25390625 C59.80347656 17.07117188 59.79445313 17.8884375 59.78515625 18.73046875 C59.76775391 19.67019531 59.76775391 19.67019531 59.75 20.62890625 C60.50023437 20.59410156 61.25046875 20.55929688 62.0234375 20.5234375 C71.8963972 20.26231388 80.09899748 21.45187586 87.9296875 27.82421875 C94.83584254 34.67109349 97.46743482 42.40728627 99.125 51.81640625 C100.39441009 58.86840743 101.83401359 65.87406944 103.33496094 72.88012695 C104.43339917 78.03609402 105.42673574 83.19539346 106.2578125 88.40234375 C107.45081524 93.79926093 109.42814407 96.58387165 113.5 100.31640625 C119.44017815 106.05886501 125.55850196 113.14849558 125.86010742 121.7800293 C125.85781128 123.69102417 125.85781128 123.69102417 125.85546875 125.640625 C125.86893333 127.05274957 125.88395803 128.46485997 125.90039062 129.87695312 C125.92313259 132.09123811 125.93757058 134.30392547 125.92504883 136.51831055 C125.80118821 147.47273544 125.80118821 147.47273544 131.38110352 156.58178711 C134.39096804 161.08289538 133.68774573 166.84424988 133.625 172.06640625 C133.66496094 173.24267578 133.70492187 174.41894531 133.74609375 175.63085938 C133.73896414 182.00829387 133.16574818 185.94648979 128.91015625 190.84765625 C123.96961024 195.74752283 119.86903637 197.75025122 112.8125 197.81640625 C111.45809653 197.75926735 110.1038637 197.69765714 108.75 197.62890625 C108.79640625 198.8096875 108.8428125 199.99046875 108.890625 201.20703125 C108.92814949 202.76429759 108.96454893 204.32159133 109 205.87890625 C109.03351563 206.65621094 109.06703125 207.43351563 109.1015625 208.234375 C109.11445313 208.98847656 109.12734375 209.74257813 109.140625 210.51953125 C109.16157227 211.21079102 109.18251953 211.90205078 109.20410156 212.61425781 C108.51727037 215.66142502 107.23664737 216.78290906 104.75 218.62890625 C101.68139648 219.13061523 101.68139648 219.13061523 98.12109375 219.125 C96.19813477 219.1259668 96.19813477 219.1259668 94.23632812 219.12695312 C93.57189697 219.11656006 92.90746582 219.10616699 92.22290039 219.09545898 C90.19009075 219.06644323 88.15988183 219.07486691 86.12695312 219.08789062 C76.14366847 219.02257472 76.14366847 219.02257472 72.75 215.62890625 C72.75 209.68890625 72.75 203.74890625 72.75 197.62890625 C35.79 197.62890625 -1.17 197.62890625 -39.25 197.62890625 C-39.25 203.23890625 -39.25 208.84890625 -39.25 214.62890625 C-42.25 218.62890625 -42.25 218.62890625 -45.296875 219.13061523 C-46.51890625 219.12876221 -47.7409375 219.12690918 -49 219.125 C-49.65452148 219.12645523 -50.30904297 219.12791046 -50.98339844 219.12940979 C-52.36527972 219.12775204 -53.7471797 219.11620418 -55.12890625 219.09545898 C-57.24298592 219.06650232 -59.35455736 219.07484917 -61.46875 219.08789062 C-62.81251218 219.08165282 -64.15626644 219.07326153 -65.5 219.0625 C-66.72203125 219.05275146 -67.9440625 219.04300293 -69.203125 219.03295898 C-72.25 218.62890625 -72.25 218.62890625 -74.15356445 217.36621094 C-75.51555453 215.20813447 -75.59703702 213.93964633 -75.54296875 211.3984375 C-75.53330078 210.59599609 -75.52363281 209.79355469 -75.51367188 208.96679688 C-75.48853516 208.13341797 -75.46339844 207.30003906 -75.4375 206.44140625 C-75.42396484 205.59642578 -75.41042969 204.75144531 -75.39648438 203.88085938 C-75.36115799 201.79660241 -75.30735139 199.71267348 -75.25 197.62890625 C-76.48363281 197.6546875 -77.71726563 197.68046875 -78.98828125 197.70703125 C-84.80250774 197.70190971 -89.0326578 195.93915391 -94 193.00390625 C-99.76066002 186.92320956 -100.89952152 179.7279887 -100.75 171.62890625 C-100.76546875 170.79101562 -100.7809375 169.953125 -100.796875 169.08984375 C-100.75903148 162.97811559 -99.47197341 157.87731562 -96.25 152.62890625 C-95.59 152.29890625 -94.93 151.96890625 -94.25 151.62890625 C-93.20782759 145.79274073 -93.24340859 140.09387937 -93.3125 134.19140625 C-93.41710549 122.60036231 -92.0698251 113.39052679 -83.875 104.56640625 C-83.12476563 103.75042969 -82.37453125 102.93445313 -81.6015625 102.09375 C-79.25 99.62890625 -79.25 99.62890625 -76.71826172 97.43554688 C-73.84444247 94.16775003 -73.09855336 91.42073698 -72.40625 87.2578125 C-72.27162354 86.54700027 -72.13699707 85.83618805 -71.99829102 85.10383606 C-71.7130252 83.58671151 -71.43638597 82.06794334 -71.16772461 80.54779053 C-70.74641989 78.17121083 -70.29995037 75.80066489 -69.84570312 73.43017578 C-69.24385564 70.28340777 -68.6488632 67.13553084 -68.0625 63.98583984 C-62.40355682 33.61447028 -62.40355682 33.61447028 -50.75 25.19140625 C-43.04030947 20.51376208 -36.06378731 20.36840022 -27.25 20.62890625 C-27.22421875 20.04882812 -27.1984375 19.46875 -27.171875 18.87109375 C-26.77569227 13.41457704 -26.0523944 9.81154009 -22.25 5.62890625 C-15.22669031 0.24125679 -8.61099187 -0.09561716 0 0 Z M-10.25 12.62890625 C-10.25 13.28890625 -10.25 13.94890625 -10.25 14.62890625 C-8.6 14.62890625 -6.95 14.62890625 -5.25 14.62890625 C-5.25 19.24890625 -5.25 23.86890625 -5.25 28.62890625 C-4.59 28.62890625 -3.93 28.62890625 -3.25 28.62890625 C-3.25 24.00890625 -3.25 19.38890625 -3.25 14.62890625 C-1.6 14.62890625 0.05 14.62890625 1.75 14.62890625 C1.75 13.96890625 1.75 13.30890625 1.75 12.62890625 C-2.21 12.62890625 -6.17 12.62890625 -10.25 12.62890625 Z M6.75 12.62890625 C5.91280617 14.91922936 5.0801071 17.21101582 4.25 19.50390625 C4.01152344 20.15488281 3.77304688 20.80585938 3.52734375 21.4765625 C2.20122467 24.96348214 2.20122467 24.96348214 1.75 28.62890625 C2.74 28.62890625 3.73 28.62890625 4.75 28.62890625 C5.08 27.63890625 5.41 26.64890625 5.75 25.62890625 C9.215 25.13390625 9.215 25.13390625 12.75 24.62890625 C13.08 25.94890625 13.41 27.26890625 13.75 28.62890625 C14.41 28.62890625 15.07 28.62890625 15.75 28.62890625 C14.65301833 22.93750723 13.20946923 17.88322688 10.75 12.62890625 C9.43 12.62890625 8.11 12.62890625 6.75 12.62890625 Z M18.75 12.62890625 C19.059375 13.37140625 19.36875 14.11390625 19.6875 14.87890625 C20.038125 15.78640625 20.38875 16.69390625 20.75 17.62890625 C21.183125 18.55703125 21.183125 18.55703125 21.625 19.50390625 C21.8386312 23.13563667 19.6597991 25.61952585 17.75 28.62890625 C19.70894361 28.51583928 19.70894361 28.51583928 21.75 27.62890625 C23.04660434 25.13856239 23.04660434 25.13856239 23.75 22.62890625 C24.41 22.62890625 25.07 22.62890625 25.75 22.62890625 C26.018125 23.43328125 26.28625 24.23765625 26.5625 25.06640625 C26.954375 25.91203125 27.34625 26.75765625 27.75 27.62890625 C28.74 27.95890625 29.73 28.28890625 30.75 28.62890625 C30.440625 27.90703125 30.13125 27.18515625 29.8125 26.44140625 C27.27479339 19.72394757 27.27479339 19.72394757 29.1875 15.31640625 C29.703125 14.42953125 30.21875 13.54265625 30.75 12.62890625 C29.76 12.62890625 28.77 12.62890625 27.75 12.62890625 C26.03288757 15.07386668 26.03288757 15.07386668 24.75 17.62890625 C24.13125 16.80390625 23.5125 15.97890625 22.875 15.12890625 C21.823125 13.89140625 21.823125 13.89140625 20.75 12.62890625 C20.09 12.62890625 19.43 12.62890625 18.75 12.62890625 Z M33.75 12.62890625 C33.75 17.90890625 33.75 23.18890625 33.75 28.62890625 C34.74 28.62890625 35.73 28.62890625 36.75 28.62890625 C36.75 23.34890625 36.75 18.06890625 36.75 12.62890625 C35.76 12.62890625 34.77 12.62890625 33.75 12.62890625 Z M-34.2734375 44.27734375 C-34.71945313 44.84710938 -35.16546875 45.416875 -35.625 46.00390625 C-36.08648437 46.56851563 -36.54796875 47.133125 -37.0234375 47.71484375 C-40.18535023 52.64903878 -41.14232298 58.16129222 -42.3125 63.81640625 C-42.48587891 64.61626953 -42.65925781 65.41613281 -42.83789062 66.24023438 C-43.09022461 67.44389648 -43.09022461 67.44389648 -43.34765625 68.671875 C-43.49726807 69.3836792 -43.64687988 70.0954834 -43.80102539 70.82885742 C-44.48085341 75.06863313 -44.82273766 79.35628281 -45.25 83.62890625 C-4.33 83.62890625 36.59 83.62890625 78.75 83.62890625 C77.01588081 63.97974857 77.01588081 63.97974857 68.15625 44.1796875 C67.5271875 43.77105469 66.898125 43.36242187 66.25 42.94140625 C65.6415625 42.52503906 65.033125 42.10867187 64.40625 41.6796875 C55.34366426 38.0946352 44.05745424 39.44833702 34.4296875 39.42578125 C33.61036869 39.42295387 32.79104988 39.4201265 31.94690323 39.41721344 C27.61938413 39.40231557 23.29189762 39.39302415 18.96435547 39.38867188 C14.51491672 39.38316994 10.06578127 39.35907891 5.61643791 39.33069992 C2.17277152 39.31202647 -1.27082202 39.30686566 -4.71453476 39.305336 C-6.3546809 39.30232466 -7.99482622 39.29434793 -9.63492203 39.28115082 C-22.72863758 38.837021 -22.72863758 38.837021 -34.2734375 44.27734375 Z M-55.25 126.62890625 C-59.16072564 131.98429995 -59.18750987 137.21390817 -58.25 143.62890625 C-56.3317868 147.60995984 -53.3094331 149.98754702 -49.25 151.62890625 C-44.08684601 152.29964831 -39.60710975 152.22109959 -34.8125 150.12890625 C-31.11853841 146.52504129 -28.49471252 142.81613758 -28.08984375 137.54296875 C-28.54681163 131.7249874 -30.99045138 127.62262562 -35.375 123.75390625 C-42.63945033 120.91129525 -49.13129155 122.00865701 -55.25 126.62890625 Z M64.4375 127.75390625 C62.12992412 131.68533183 61.56295035 135.09295231 61.75 139.62890625 C63.0417967 144.18818872 64.8920136 147.81883746 68.7421875 150.75 C73.12124845 152.66690411 78.11032078 152.37824879 82.75 151.62890625 C87.39324953 149.35384702 90.00417645 146.50970328 91.75 141.62890625 C92.41662772 137.30323304 92.28487443 133.83237371 90.5 129.81640625 C86.85750755 125.23034213 86.85750755 125.23034213 81.75 122.62890625 C74.71079355 121.93168961 69.79553584 122.83030575 64.4375 127.75390625 Z M-6.25 131.62890625 C-6.25 132.28890625 -6.25 132.94890625 -6.25 133.62890625 C-7.24 133.95890625 -8.23 134.28890625 -9.25 134.62890625 C-10.56273014 141.8695013 -10.56273014 141.8695013 -8.25 148.62890625 C-5.71348104 151.35066029 -3.60177493 151.85144902 -0.01977539 152.04882812 C1.70402012 152.0820981 3.42822725 152.09726269 5.15234375 152.09765625 C6.06705948 152.10526978 6.98177521 152.1128833 7.92420959 152.12072754 C9.85659051 152.13152118 11.78902973 152.13438463 13.72143555 152.12988281 C16.6740064 152.12891069 19.62397632 152.17053497 22.57617188 152.21484375 C24.45572376 152.22005112 26.33528466 152.22273894 28.21484375 152.22265625 C29.09518784 152.23905151 29.97553192 152.25544678 30.8825531 152.27233887 C35.36154407 152.22197669 37.17177808 152.08659767 40.79516602 149.21850586 C43.49253366 145.64526013 44.03561387 143.04293876 43.75 138.62890625 C42.51436552 134.77663404 41.57329258 133.14922593 38.14672852 130.98364258 C34.1626037 129.39463168 30.68352053 129.21317793 26.46484375 129.265625 C25.2967794 129.26487724 25.2967794 129.26487724 24.1051178 129.26411438 C22.46710646 129.26644424 20.82909082 129.27610818 19.19116211 129.29272461 C16.69156746 129.31636778 14.19303792 129.31327107 11.69335938 129.30664062 C10.09634784 129.31221671 8.49934078 129.31932615 6.90234375 129.328125 C6.15951645 129.32721359 5.41668915 129.32630219 4.65135193 129.32536316 C0.58489091 129.38065757 -2.58831901 129.8238902 -6.25 131.62890625 Z M-80.25 165.62890625 C-80.25 169.58890625 -80.25 173.54890625 -80.25 177.62890625 C-16.23 177.62890625 47.79 177.62890625 113.75 177.62890625 C113.75 173.66890625 113.75 169.70890625 113.75 165.62890625 C49.73 165.62890625 -14.29 165.62890625 -80.25 165.62890625 Z " fill="#FFFFFF" transform="translate(234.25,140.37109375)"></path><path d="M0 0 C1.74627478 2.61941217 2.38722388 4.03824877 3 7 C1.35 7 -0.3 7 -2 7 C-1.125 1.125 -1.125 1.125 0 0 Z " fill="#FFFFFF" transform="translate(243,156)"></path></svg>