<svg xmlns="http://www.w3.org/2000/svg" width="500" height="500"><path d="M0 0 C15.65934441 0.47072178 15.65934441 0.47072178 21.6953125 5.40234375 C24.0234375 8.0546875 24.0234375 8.0546875 25.96875 10.64453125 C28.03125765 13.28738012 30.27759104 15.04460052 32.8984375 17.1171875 C34.69921875 19.2578125 34.69921875 19.2578125 36.2109375 21.3671875 C36.72269531 22.07359375 37.23445313 22.78 37.76171875 23.5078125 C38.13683594 24.03890625 38.51195312 24.57 38.8984375 25.1171875 C41.47388175 23.84280965 44.02838772 22.5317944 46.578125 21.20703125 C47.97645053 20.48936512 49.37489133 19.77192356 50.7734375 19.0546875 C51.81564453 18.50844727 51.81564453 18.50844727 52.87890625 17.95117188 C56.89709205 15.90424295 60.34459743 14.58113672 64.8984375 14.1171875 C64.8984375 13.4571875 64.8984375 12.7971875 64.8984375 12.1171875 C73.0713714 8.41290811 81.47533751 9.9078498 89.8984375 12.1171875 C89.8984375 12.7771875 89.8984375 13.4371875 89.8984375 14.1171875 C91.3215625 14.148125 91.3215625 14.148125 92.7734375 14.1796875 C102.56385249 15.63741528 110.59308217 25.18129664 116.8984375 32.1171875 C118.8984375 35.1171875 118.8984375 35.1171875 119.8984375 38.1171875 C120.3728125 38.7978125 120.8471875 39.4784375 121.3359375 40.1796875 C125.31930362 47.6684158 125.2774242 56.62176065 125.5234375 64.9296875 C125.56138428 66.03103027 125.59933105 67.13237305 125.63842773 68.26708984 C126.04851726 81.54803915 125.98677726 94.83165196 125.8984375 108.1171875 C80.56510417 108.1171875 35.23177083 108.1171875 -10.1015625 108.1171875 C-10.1015625 92.9371875 -10.1015625 77.7571875 -10.1015625 62.1171875 C-8.6165625 61.6221875 -8.6165625 61.6221875 -7.1015625 61.1171875 C-6.9571875 60.1478125 -6.8128125 59.1784375 -6.6640625 58.1796875 C-6.1015625 55.1171875 -6.1015625 55.1171875 -5.1015625 54.1171875 C-4.98387572 52.46587408 -4.93425862 50.8096505 -4.91210938 49.15429688 C-4.89539185 48.09650024 -4.87867432 47.03870361 -4.8614502 45.94885254 C-4.84787476 44.79784058 -4.83429932 43.64682861 -4.8203125 42.4609375 C-4.80190308 41.28833374 -4.78349365 40.11572998 -4.76452637 38.90759277 C-4.70555672 35.14417714 -4.65282889 31.38071551 -4.6015625 27.6171875 C-4.5341611 22.66916884 -4.46049209 17.72130426 -4.3828125 12.7734375 C-4.36923706 11.62242554 -4.35566162 10.47141357 -4.3416748 9.28552246 C-4.32495728 8.22772583 -4.30823975 7.1699292 -4.29101562 6.08007812 C-4.27848755 5.14377563 -4.26595947 4.20747314 -4.25305176 3.24279785 C-4.0094594 -0.17515034 -3.5137031 0.13275956 0 0 Z M5.8984375 12.1171875 C5.8890918 13.46876953 5.87974609 14.82035156 5.87011719 16.21289062 C5.83008704 21.25260743 5.76429162 26.29172215 5.69091797 31.33105469 C5.66278383 33.50740799 5.6415319 35.68386203 5.62744141 37.86035156 C5.60590744 40.99856868 5.55920244 44.13558413 5.5078125 47.2734375 C5.50658386 48.23834106 5.50535522 49.20324463 5.50408936 50.1973877 C5.38467384 55.77100605 4.53276006 59.39848034 1.79412842 64.23449707 C0.28339232 67.40997684 0.45190926 70.43243687 0.5078125 73.8984375 C0.51780273 75.17783203 0.52779297 76.45722656 0.53808594 77.77539062 C0.57450195 79.37318359 0.61091797 80.97097656 0.6484375 82.6171875 C0.7309375 87.7321875 0.8134375 92.8471875 0.8984375 98.1171875 C21.6884375 98.1171875 42.4784375 98.1171875 63.8984375 98.1171875 C65.60907098 82.5158987 65.60907098 82.5158987 65.8984375 67.1171875 C71.8384375 67.1171875 77.7784375 67.1171875 83.8984375 67.1171875 C83.86588542 69.55859375 83.83333333 72 83.80078125 74.44140625 C83.82412514 77.07281531 83.82412514 77.07281531 84.3671875 79.4296875 C85.08935233 83.08299193 85.25829577 86.71660917 85.4609375 90.4296875 C85.6775 94.235 85.6775 94.235 85.8984375 98.1171875 C95.4684375 98.1171875 105.0384375 98.1171875 114.8984375 98.1171875 C115.0145869 92.73043636 115.11368882 87.3481979 115.1730957 81.96118164 C115.19791155 80.13713698 115.23177626 78.31318811 115.27563477 76.48950195 C115.57301537 63.78610212 114.24979353 53.08611472 109.8984375 41.1171875 C109.2384375 41.1171875 108.5784375 41.1171875 107.8984375 41.1171875 C106.9084375 38.1471875 106.9084375 38.1471875 105.8984375 35.1171875 C105.2384375 35.1171875 104.5784375 35.1171875 103.8984375 35.1171875 C103.49625 34.22 103.49625 34.22 103.0859375 33.3046875 C100.98222717 29.42943164 98.45741979 27.68867886 94.4609375 25.9296875 C93.69910156 25.58550781 92.93726563 25.24132812 92.15234375 24.88671875 C89.66447163 23.90178215 89.66447163 23.90178215 85.8984375 24.1171875 C85.8984375 23.4571875 85.8984375 22.7971875 85.8984375 22.1171875 C79.28783456 20.14560417 74.58346771 19.8888441 67.8984375 22.1171875 C67.8984375 22.7771875 67.8984375 23.4371875 67.8984375 24.1171875 C67.37507813 24.2203125 66.85171875 24.3234375 66.3125 24.4296875 C63.12806339 25.33658207 60.26943217 26.71049023 57.2734375 28.1171875 C56.12617188 28.6534375 54.97890625 29.1896875 53.796875 29.7421875 C52.15739264 30.51994733 50.52147484 31.30566883 48.8984375 32.1171875 C48.8984375 32.7771875 48.8984375 33.4371875 48.8984375 34.1171875 C48.2178125 34.2409375 47.5371875 34.3646875 46.8359375 34.4921875 C43.76297239 35.10742099 43.76297239 35.10742099 40.2734375 36.1796875 C36.8984375 37.1171875 36.8984375 37.1171875 33.8984375 37.1171875 C33.4034375 35.6321875 33.4034375 35.6321875 32.8984375 34.1171875 C32.2384375 34.1171875 31.5784375 34.1171875 30.8984375 34.1171875 C30.6303125 33.54484375 30.3621875 32.9725 30.0859375 32.3828125 C28.85711114 30.03834116 27.47321574 27.99313812 25.8984375 25.8671875 C25.125 24.80757813 25.125 24.80757813 24.3359375 23.7265625 C23.8615625 23.19546875 23.3871875 22.664375 22.8984375 22.1171875 C22.2384375 22.1171875 21.5784375 22.1171875 20.8984375 22.1171875 C20.8984375 21.4571875 20.8984375 20.7971875 20.8984375 20.1171875 C19.9084375 19.4571875 18.9184375 18.7971875 17.8984375 18.1171875 C17.5684375 17.1271875 17.2384375 16.1371875 16.8984375 15.1171875 C16.2384375 15.1171875 15.5784375 15.1171875 14.8984375 15.1171875 C14.8984375 14.4571875 14.8984375 13.7971875 14.8984375 13.1171875 C11.9284375 12.7871875 8.9584375 12.4571875 5.8984375 12.1171875 Z M74.8984375 90.1171875 C75.8984375 92.1171875 75.8984375 92.1171875 75.8984375 92.1171875 Z " fill="#FFFFFF" transform="translate(220.1015625,244.8828125)"></path><path d="M0 0 C0.6700708 0.20447754 1.3401416 0.40895508 2.03051758 0.61962891 C6.22310447 2.01698184 9.19243373 3.85216815 12.5 6.75 C13.263125 7.1625 14.02625 7.575 14.8125 8 C25.00151942 14.63471032 31.56448049 25.08027214 34.5 36.75 C34.90710921 39.84831534 34.97624884 42.87781191 34.9375 46 C34.93266602 47.22746948 34.93266602 47.22746948 34.92773438 48.47973633 C34.76262925 55.74649692 33.22043936 61.98533605 30.5 68.75 C29.84 68.75 29.18 68.75 28.5 68.75 C28.5 69.74 28.5 70.73 28.5 71.75 C27.84 71.75 27.18 71.75 26.5 71.75 C25.84 73.73 25.18 75.71 24.5 77.75 C23.84 77.75 23.18 77.75 22.5 77.75 C22.5 78.41 22.5 79.07 22.5 79.75 C21.07421875 81.2578125 21.07421875 81.2578125 19.1875 82.875 C18.57261719 83.41382813 17.95773437 83.95265625 17.32421875 84.5078125 C15.5 85.75 15.5 85.75 12.5 85.75 C12.5 86.41 12.5 87.07 12.5 87.75 C1.29100152 96.09158027 -12.52014483 96.73727605 -25.9375 95 C-31.61864461 94.08624947 -36.43147423 92.44797496 -41.5 89.75 C-41.5 89.09 -41.5 88.43 -41.5 87.75 C-42.49 87.75 -43.48 87.75 -44.5 87.75 C-44.5 87.09 -44.5 86.43 -44.5 85.75 C-45.221875 85.523125 -45.94375 85.29625 -46.6875 85.0625 C-53.46535846 81.89949938 -57.28544183 75.26748907 -60.5 68.75 C-60.5 67.76 -60.5 66.77 -60.5 65.75 C-61.49 65.42 -62.48 65.09 -63.5 64.75 C-66.57118367 53.58953792 -67.25334802 39.81249942 -63.5 28.75 C-62.51 28.42 -61.52 28.09 -60.5 27.75 C-60.5 26.76 -60.5 25.77 -60.5 24.75 C-59.84 24.75 -59.18 24.75 -58.5 24.75 C-58.438125 23.8425 -58.37625 22.935 -58.3125 22 C-57.28196473 17.87785892 -55.88000564 17.2286708 -52.5 14.75 C-50.94992912 12.9535076 -49.47840981 11.11542211 -48.02734375 9.23828125 C-46.5 7.75 -46.5 7.75 -44.37890625 7.23046875 C-43.75886719 7.07191406 -43.13882813 6.91335937 -42.5 6.75 C-42.17 5.76 -41.84 4.77 -41.5 3.75 C-39.06859095 2.72406399 -36.7618501 1.89132715 -34.25 1.125 C-33.24646484 0.80015625 -33.24646484 0.80015625 -32.22265625 0.46875 C-21.1869606 -3.04359321 -11.09933246 -3.43072602 0 0 Z M-33.5 11.75 C-33.83 12.41 -34.16 13.07 -34.5 13.75 C-35.69625 14.265625 -36.8925 14.78125 -38.125 15.3125 C-44.4883337 18.37421173 -48.45424052 24.16429081 -51.4375 30.4375 C-52.50292097 33.75910656 -52.7533294 36.28783159 -52.5 39.75 C-53.16 39.75 -53.82 39.75 -54.5 39.75 C-54.97043847 51.13374973 -54.97043847 51.13374973 -51.5 61.75 C-50.93732422 63.00103516 -50.93732422 63.00103516 -50.36328125 64.27734375 C-46.66848136 72.21475298 -42.36047886 76.89121947 -34.5 80.75 C-33.18 80.75 -31.86 80.75 -30.5 80.75 C-30.5 81.41 -30.5 82.07 -30.5 82.75 C-19.2778199 86.83964481 -10.67746818 86.90927317 0.41015625 82.2421875 C6.70559614 79.20191185 12.72237579 75.82704765 16.5 69.75 C16.5 68.76 16.5 67.77 16.5 66.75 C17.16 66.75 17.82 66.75 18.5 66.75 C18.95375 65.698125 19.4075 64.64625 19.875 63.5625 C20.13023437 62.97082031 20.38546875 62.37914062 20.6484375 61.76953125 C20.92945313 61.10308594 21.21046875 60.43664062 21.5 59.75 C21.85964844 59.01136719 22.21929687 58.27273437 22.58984375 57.51171875 C23.77789597 53.90677059 23.75321529 50.49923044 23.6875 46.75 C23.68685547 46.05132812 23.68621094 45.35265625 23.68554688 44.6328125 C23.65374756 40.88756 23.3889305 37.39105933 22.5 33.75 C21.84 33.75 21.18 33.75 20.5 33.75 C20.396875 33.028125 20.29375 32.30625 20.1875 31.5625 C19.43206053 28.47206579 18.34468685 26.33256159 16.5 23.75 C15.84 23.75 15.18 23.75 14.5 23.75 C14.190625 22.63625 14.190625 22.63625 13.875 21.5 C12.0787993 17.9075986 9.97882691 16.66690463 6.5 14.75 C5.51 14.75 4.52 14.75 3.5 14.75 C3.005 13.265 3.005 13.265 2.5 11.75 C-7.73534684 6.2229127 -23.0845998 7.26273272 -33.5 11.75 Z " fill="#FFFFFF" transform="translate(288.5,149.25)"></path><path d="M0 0 C0.99 0 1.98 0 3 0 C3.79324259 2.80450999 4.12843406 5.30134323 4.14044189 8.21252441 C4.14615204 9.04524368 4.15186218 9.87796295 4.15774536 10.73591614 C4.15942215 12.09350288 4.15942215 12.09350288 4.16113281 13.47851562 C4.16858017 14.91815926 4.16858017 14.91815926 4.17617798 16.3868866 C4.19077712 19.56001502 4.19759665 22.73309352 4.203125 25.90625 C4.20887677 28.11055503 4.2146345 30.31486004 4.22039795 32.51916504 C4.23090047 37.13924391 4.23674855 41.75930541 4.24023438 46.37939453 C4.24572812 52.30460715 4.26977819 58.22959102 4.29820633 64.15473175 C4.3168083 68.70657021 4.32203693 73.25835318 4.32357025 77.81022644 C4.32660107 79.99514522 4.33464396 82.18006292 4.34775543 84.36494446 C4.36477032 87.41730321 4.36294715 90.46909772 4.35644531 93.52148438 C4.3656601 94.42654221 4.37487488 95.33160004 4.3843689 96.26408386 C4.34337493 102.39364544 4.34337493 102.39364544 2.60272217 105.46740723 C2.07382385 105.97316284 1.54492554 106.47891846 1 107 C0.34 107.66 -0.32 108.32 -1 109 C-3.4556974 109.22437174 -5.80118497 109.32494267 -8.26025391 109.33813477 C-9.00847412 109.34967087 -9.75669434 109.36120697 -10.52758789 109.37309265 C-13.01060041 109.40748499 -15.49336367 109.4259229 -17.9765625 109.44140625 C-19.24964327 109.45176061 -19.24964327 109.45176061 -20.54844284 109.46232414 C-25.04450424 109.49820266 -29.54043952 109.52171548 -34.03662109 109.53540039 C-38.67068505 109.55191155 -43.30321294 109.61026755 -47.93676186 109.67854404 C-51.50743049 109.72344736 -55.07773584 109.73690383 -58.64866257 109.74201775 C-60.35587373 109.74989089 -62.06307435 109.76947411 -63.77000809 109.80124092 C-78.78773552 110.06217248 -78.78773552 110.06217248 -84.04833984 105.70288086 C-86.37473069 103.27064418 -87.49605583 101.33866349 -88 98 C-87.5625 95.75 -87.5625 95.75 -87 94 C-85.14375 93.7834375 -85.14375 93.7834375 -83.25 93.5625 C-80.43495501 93.21311498 -77.7298503 92.79620634 -75 92 C-74.34 93.32 -73.68 94.64 -73 96 C-51.88 96 -30.76 96 -9 96 C-9.0928125 89.56113281 -9.185625 83.12226563 -9.28125 76.48828125 C-9.32212611 72.40944074 -9.36063639 68.33085268 -9.390625 64.25195312 C-9.43845361 57.77721732 -9.49503467 51.30338635 -9.60351562 44.8293457 C-9.69043006 39.60971864 -9.73827164 34.39106164 -9.75901794 29.17076683 C-9.77380215 27.17911693 -9.80267382 25.18752028 -9.84584045 23.19628334 C-9.90392134 20.40613707 -9.91191387 17.61999905 -9.90820312 14.8293457 C-9.95134644 13.59396057 -9.95134644 13.59396057 -9.99536133 12.33361816 C-9.96125076 9.9634494 -9.85731199 8.21344616 -9 6 C-6.55812683 3.81053521 -3.93537147 2.42425632 -1 1 C-0.67 0.67 -0.34 0.34 0 0 Z " fill="#FFFFFF" transform="translate(208,199)"></path><path d="M0 0 C0 0.66 0 1.32 0 2 C0.680625 2.226875 1.36125 2.45375 2.0625 2.6875 C9.61973624 6.06413747 13.72609933 10.32066618 17 18 C17 18.66 17 19.32 17 20 C17.66 20 18.32 20 19 20 C20.9963372 25.79963575 21.27362652 30.95658296 21.1875 37.0625 C21.1865332 38.37057617 21.1865332 38.37057617 21.18554688 39.70507812 C21.10367718 51.72172982 21.10367718 51.72172982 18.6171875 54.6015625 C18.08351563 55.06304687 17.54984375 55.52453125 17 56 C15.5048649 58.18142662 14.10307883 60.40985825 12.6953125 62.6484375 C6.7579813 70.88409045 -2.56115043 76.6410609 -12.57128906 78.46972656 C-24.70597992 79.7862892 -34.96992083 78.29342951 -45 71 C-49.91738831 66.82437638 -54.15927179 62.82349282 -57 57 C-57.66 56.67 -58.32 56.34 -59 56 C-59.8515625 53.93359375 -59.8515625 53.93359375 -60.625 51.4375 C-60.88539063 50.61121094 -61.14578125 49.78492188 -61.4140625 48.93359375 C-61.60742188 48.29550781 -61.80078125 47.65742188 -62 47 C-62.33 47 -62.66 47 -63 47 C-63.63821594 30.72549364 -61.75435959 20.87201341 -51 8 C-48.00368927 4.96264391 -44.8413471 2.84953749 -41 1 C-40.67 0.34 -40.34 -0.32 -40 -1 C-26.26037843 -6.30233283 -13.44198938 -6.72099469 0 0 Z M-45.46484375 14.98046875 C-48.25498799 18.65096385 -49.57767046 22.94118662 -51.0546875 27.26953125 C-52 30 -52 30 -53 31 C-53.65603778 37.72169852 -53.55964158 43.33422088 -50.0625 49.19921875 C-49 51 -49 51 -47.6875 54.625 C-43.71093319 62.57813362 -36.69813438 65.34695272 -28.625 68.1875 C-18.24057386 70.51504379 -9.00093434 68.00053391 0.2421875 62.71875 C6.65180681 57.81895213 10.41991621 49.47987595 13 42 C13.74376666 35.90497714 13.21766786 31.32152762 10 26 C9.505 24.7315625 9.505 24.7315625 9 23.4375 C7.89795946 20.75127618 6.6422781 18.3949889 5 16 C4.34 16 3.68 16 3 16 C3 15.34 3 14.68 3 14 C-10.86000591 1.00624446 -31.65970877 2.6113289 -45.46484375 14.98046875 Z " fill="#FFFFFF" transform="translate(377,201)"></path><path d="M0 0 C7.30307502 4.69014848 12.23850068 10.13995363 14.41015625 18.65625 C14.87660342 21.73570706 14.98180745 24.69793486 15 27.8125 C15.01417969 28.9159375 15.02835938 30.019375 15.04296875 31.15625 C14.75823503 35.05565422 13.53803733 37.86142535 11.8125 41.3125 C12.8025 40.6525 13.7925 39.9925 14.8125 39.3125 C17.72529374 39.14368386 20.52884124 39.07940221 23.4375 39.125 C24.62085938 39.1259668 24.62085938 39.1259668 25.828125 39.12695312 C31.6721388 39.1721388 31.6721388 39.1721388 32.8125 40.3125 C32.8125 42.2925 32.8125 44.2725 32.8125 46.3125 C25.2225 46.6425 17.6325 46.9725 9.8125 47.3125 C9.4825 46.6525 9.1525 45.9925 8.8125 45.3125 C7.94238281 46.14394531 7.94238281 46.14394531 7.0546875 46.9921875 C6.27351563 47.71664062 5.49234375 48.44109375 4.6875 49.1875 C3.92179687 49.90679687 3.15609375 50.62609375 2.3671875 51.3671875 C-3.28597692 55.67189068 -8.99834695 55.62539987 -15.8125 55.5625 C-17.0809375 55.57410156 -17.0809375 55.57410156 -18.375 55.5859375 C-19.19226563 55.58335937 -20.00953125 55.58078125 -20.8515625 55.578125 C-21.58842285 55.57586914 -22.3252832 55.57361328 -23.08447266 55.57128906 C-26.3752435 55.16634164 -28.44046806 54.00155756 -30.86425781 51.76586914 C-36.22113722 44.81443558 -36.10567255 37.51230674 -35.96972656 29.11938477 C-35.93749706 26.7497835 -35.96953708 24.38697382 -36.0078125 22.01757812 C-36.04425996 8.38676552 -36.04425996 8.38676552 -30.75439453 2.69360352 C-22.24816131 -4.80402212 -10.0123724 -5.25751441 0 0 Z M-23.1875 10.3125 C-25.18694071 15.5158202 -24.41363816 21.77072412 -24.4375 27.25 C-24.458125 28.43013672 -24.47875 29.61027344 -24.5 30.82617188 C-24.50515625 31.96505859 -24.5103125 33.10394531 -24.515625 34.27734375 C-24.5249707 35.3149585 -24.53431641 36.35257324 -24.54394531 37.42163086 C-24.13229018 40.76026674 -23.20373247 42.63908262 -21.1875 45.3125 C-15.9814166 46.66658631 -10.55096159 45.82828588 -5.75 43.5 C-4.54927419 42.79282406 -3.35959157 42.06618536 -2.1875 41.3125 C-1.40375 40.879375 -0.62 40.44625 0.1875 40 C2.68088647 37.41071405 3.43573718 34.7945177 3.8125 31.3125 C3.69323905 26.19090463 3.43820329 21.18960988 1.8125 16.3125 C1.1525 16.3125 0.4925 16.3125 -0.1875 16.3125 C-0.414375 15.735 -0.64125 15.1575 -0.875 14.5625 C-2.59209467 11.61890913 -4.34643817 10.20131628 -7.1875 8.3125 C-10.43190887 7.75770274 -10.43190887 7.75770274 -13.8125 7.9375 C-14.93914062 7.95039063 -16.06578125 7.96328125 -17.2265625 7.9765625 C-20.37135204 8.10474926 -20.37135204 8.10474926 -23.1875 10.3125 Z " fill="#FFFFFF" transform="translate(137.1875,234.6875)"></path><path d="M0 0 C0.94594025 0.00565979 1.89188049 0.01131958 2.8664856 0.01715088 C5.87245392 0.03944929 8.87720761 0.08963362 11.8828125 0.140625 C13.92706606 0.16069844 15.97133839 0.17894773 18.015625 0.1953125 C23.01348515 0.23929272 28.01044325 0.30827515 33.0078125 0.390625 C33.5028125 3.855625 33.5028125 3.855625 34.0078125 7.390625 C34.9978125 7.390625 35.9878125 7.390625 37.0078125 7.390625 C37.5703125 9.328125 37.5703125 9.328125 38.0078125 11.390625 C37.0078125 12.390625 37.0078125 12.390625 33.22241211 12.50415039 C31.53498521 12.50399122 29.84755345 12.49829417 28.16015625 12.48828125 C26.83051598 12.48615883 26.83051598 12.48615883 25.47401428 12.48399353 C22.63107996 12.47837715 19.78822319 12.46582191 16.9453125 12.453125 C15.02278759 12.44811211 13.10026146 12.44354884 11.17773438 12.43945312 C6.45439701 12.42840241 1.73111792 12.41112683 -2.9921875 12.390625 C-2.74819969 13.29841705 -2.74819969 13.29841705 -2.49928284 14.22454834 C-1.87753582 16.88036392 -1.88002431 19.30394436 -1.89453125 22.03125 C-1.89775391 23.10117188 -1.90097656 24.17109375 -1.90429688 25.2734375 C-1.91267578 26.38460937 -1.92105469 27.49578125 -1.9296875 28.640625 C-1.93419922 29.76726562 -1.93871094 30.89390625 -1.94335938 32.0546875 C-1.95513353 34.83338717 -1.9715791 37.61197909 -1.9921875 40.390625 C-3.57586497 40.24857759 -5.15912068 40.10182347 -6.7421875 39.953125 C-7.62390625 39.87191406 -8.505625 39.79070312 -9.4140625 39.70703125 C-11.68569202 39.42824035 -13.79070573 39.00271923 -15.9921875 38.390625 C-16.14068712 33.62188336 -16.24946773 28.85449085 -16.32177734 24.08398438 C-16.35192212 22.4620011 -16.39284691 20.84018048 -16.44482422 19.21875 C-16.51775363 16.88500889 -16.55166239 14.55342389 -16.578125 12.21875 C-16.60909271 11.49568665 -16.64006042 10.77262329 -16.67196655 10.02764893 C-16.67450254 6.22017891 -16.27031875 4.67483685 -13.58007812 1.92578125 C-8.88705999 -0.0822276 -5.04761547 -0.11456485 0 0 Z " fill="#FFFFFF" transform="translate(135.9921875,190.609375)"></path><path d="M0 0 C2.8125 0.8125 2.8125 0.8125 3.8125 1.8125 C4.0625 5.25 4.0625 5.25 3.8125 8.8125 C2.8225 9.4725 1.8325 10.1325 0.8125 10.8125 C0.35875 11.575625 -0.095 12.33875 -0.5625 13.125 C-2.42041344 16.197703 -4.52046693 18.41900878 -7.1875 20.8125 C-7.8475 20.8125 -8.5075 20.8125 -9.1875 20.8125 C-9.414375 21.369375 -9.64125 21.92625 -9.875 22.5 C-12.57590584 27.25873886 -15.97761272 30.17510685 -21.1875 31.8125 C-23.22869788 30.19655168 -25.22822937 28.5268618 -27.1875 26.8125 C-27.1875 26.1525 -27.1875 25.4925 -27.1875 24.8125 C-28.5075 24.1525 -29.8275 23.4925 -31.1875 22.8125 C-31.1875 22.1525 -31.1875 21.4925 -31.1875 20.8125 C-32.1775 20.8125 -33.1675 20.8125 -34.1875 20.8125 C-35.52014887 13.42235626 -35.52014887 13.42235626 -34.0625 10.75 C-32.1875 9.8125 -32.1875 9.8125 -29.8125 9.75 C-26.04617831 11.27446354 -24.60052685 13.57214966 -22.1875 16.8125 C-18.48348129 16.5805847 -17.30219483 15.92931553 -14.65234375 13.23046875 C-13.79712586 12.16375958 -12.95494103 11.08649159 -12.125 10 C-4.05992303 -0.238819 -4.05992303 -0.238819 0 0 Z " fill="#FFFFFF" transform="translate(209.1875,167.1875)"></path><path d="M0 0 C1.01900391 -0.00128906 2.03800781 -0.00257813 3.08789062 -0.00390625 C4.15072266 -0.00003906 5.21355469 0.00382813 6.30859375 0.0078125 C7.90864258 0.00201172 7.90864258 0.00201172 9.54101562 -0.00390625 C11.06758789 -0.00197266 11.06758789 -0.00197266 12.625 0 C14.02600952 0.00169189 14.02600952 0.00169189 15.45532227 0.00341797 C17.74609375 0.1328125 17.74609375 0.1328125 19.74609375 1.1328125 C19.78863731 3.13235996 19.78690158 5.13322886 19.74609375 7.1328125 C18.74609375 8.1328125 18.74609375 8.1328125 16.24584961 8.24633789 C15.16182861 8.24110107 14.07780762 8.23586426 12.9609375 8.23046875 C11.79111328 8.22724609 10.62128906 8.22402344 9.41601562 8.22070312 C8.18431641 8.21232422 6.95261719 8.20394531 5.68359375 8.1953125 C3.83024414 8.18854492 3.83024414 8.18854492 1.93945312 8.18164062 C-1.12504742 8.16980858 -4.18945346 8.15332423 -7.25390625 8.1328125 C-7.58390625 5.8228125 -7.91390625 3.5128125 -8.25390625 1.1328125 C-5.22562213 0.12338446 -3.16662161 0.00381948 0 0 Z " fill="#FFFFFF" transform="translate(150.25390625,216.8671875)"></path><path d="M0 0 C7.59 0.33 15.18 0.66 23 1 C23 2.98 23 4.96 23 7 C20.22276075 7.78688445 17.77389923 8.11949924 14.890625 8.09765625 C14.13652344 8.09443359 13.38242188 8.09121094 12.60546875 8.08789062 C11.82816406 8.07951172 11.05085937 8.07113281 10.25 8.0625 C9.45722656 8.05798828 8.66445312 8.05347656 7.84765625 8.04882812 C5.89840492 8.03708565 3.94919262 8.01915146 2 8 C2 7.34 2 6.68 2 6 C1.01 5.67 0.02 5.34 -1 5 C-0.67 3.35 -0.34 1.7 0 0 Z " fill="#FFFFFF" transform="translate(147,237)"></path><path d="M0 0 C2.79173055 -0.02690104 5.58320348 -0.04679053 8.375 -0.0625 C9.56609375 -0.07506836 9.56609375 -0.07506836 10.78125 -0.08789062 C16.7734375 -0.11328125 16.7734375 -0.11328125 19 1 C18.625 3.9375 18.625 3.9375 18 7 C15.02760209 8.48619895 12.30380422 8.13177009 9 8.125 C7.1128125 8.12886719 7.1128125 8.12886719 5.1875 8.1328125 C2 8 2 8 0 7 C0 4.69 0 2.38 0 0 Z " fill="#FFFFFF" transform="translate(178,217)"></path><path d="M0 0 C0.68578125 -0.01224609 1.3715625 -0.02449219 2.078125 -0.03710938 C5.81796797 -0.04802331 7.4349737 0.0608158 10.625 2.1875 C10.8125 4.8125 10.8125 4.8125 10.625 7.1875 C6.27167264 8.02773188 2.18057481 8.29520995 -2.25 8.25 C-3.40242187 8.24097656 -4.55484375 8.23195313 -5.7421875 8.22265625 C-6.61101562 8.21105469 -7.47984375 8.19945312 -8.375 8.1875 C-8.41741723 5.85455225 -8.41592937 3.52047433 -8.375 1.1875 C-6.40200486 -0.78549514 -2.69011482 0.00250011 0 0 Z " fill="#FFFFFF" transform="translate(186.375,252.8125)"></path><path d="M0 0 C2.79192205 -0.05380578 5.5828141 -0.09357669 8.375 -0.125 C9.1690625 -0.14175781 9.963125 -0.15851563 10.78125 -0.17578125 C12.85492015 -0.19335473 14.92883241 -0.10335168 17 0 C17.66 0.66 18.32 1.32 19 2 C18.67 3.65 18.34 5.3 18 7 C12.06 7.33 6.12 7.66 0 8 C0 5.36 0 2.72 0 0 Z " fill="#FFFFFF" transform="translate(178,274)"></path><path d="M0 0 C2.79192205 -0.05380578 5.5828141 -0.09357669 8.375 -0.125 C9.1690625 -0.14175781 9.963125 -0.15851563 10.78125 -0.17578125 C12.85492015 -0.19335473 14.92883241 -0.10335168 17 0 C19 2 19 2 19 6 C14.84373632 7.00926479 10.95634906 7.10239579 6.6875 7.0625 C5.43324219 7.05347656 4.17898437 7.04445312 2.88671875 7.03515625 C1.93410156 7.02355469 0.98148438 7.01195312 0 7 C0 4.69 0 2.38 0 0 Z " fill="#FFFFFF" transform="translate(178,238)"></path><path d="M0 0 C0.70253906 0.00386719 1.40507812 0.00773438 2.12890625 0.01171875 C2.83144531 0.00785156 3.53398437 0.00398437 4.2578125 0 C9.50229247 0.01010497 9.50229247 0.01010497 10.62890625 1.13671875 C10.66971408 3.13630239 10.67144981 5.13717129 10.62890625 7.13671875 C7.20657653 8.27749532 4.54217408 8.23486992 0.94140625 8.19921875 C-0.82783203 8.18568359 -0.82783203 8.18568359 -2.6328125 8.171875 C-3.53644531 8.16027344 -4.44007813 8.14867187 -5.37109375 8.13671875 C-5.75172596 5.81063305 -6.0837932 3.47616611 -6.37109375 1.13671875 C-4.61549433 -0.61888067 -2.33526933 0.00449956 0 0 Z " fill="#FFFFFF" transform="translate(159.37109375,252.86328125)"></path><path d="M0 0 C3.3 0 6.6 0 10 0 C10 0.66 10 1.32 10 2 C6.7 2 3.4 2 0 2 C0 1.34 0 0.68 0 0 Z " fill="#FFFFFF" transform="translate(314,281)"></path><path d="M0 0 C0.66 0 1.32 0 2 0 C2 1.32 2 2.64 2 4 C1.34 4 0.68 4 0 4 C0 2.68 0 1.36 0 0 Z " fill="#FFFFFF" transform="translate(310,278)"></path><path d="M0 0 C1.98 0 3.96 0 6 0 C6 0.33 6 0.66 6 1 C4.02 1 2.04 1 0 1 C0 0.67 0 0.34 0 0 Z " fill="#FFFFFF" transform="translate(117,291)"></path><path d="" fill="#FFFFFF" transform="translate(0,0)"></path><path d="" fill="#FFFFFF" transform="translate(0,0)"></path><path d="" fill="#FFFFFF" transform="translate(0,0)"></path></svg>