<svg xmlns="http://www.w3.org/2000/svg" width="500" height="500"><path d="M0 0 C4.56274186 2.27149487 7.76620385 5.79060822 10.0546875 10.3359375 C10.0546875 11.3259375 10.0546875 12.3159375 10.0546875 13.3359375 C9.0646875 13.3359375 8.0746875 13.3359375 7.0546875 13.3359375 C7.0546875 15.3159375 7.0546875 17.2959375 7.0546875 19.3359375 C6.46300781 19.13097656 5.87132812 18.92601562 5.26171875 18.71484375 C1.21807934 17.3361804 -2.71386499 16.01842903 -6.9453125 15.3359375 C-6.9453125 16.9859375 -6.9453125 18.6359375 -6.9453125 20.3359375 C-6.26984375 20.38492188 -5.594375 20.43390625 -4.8984375 20.484375 C-4.00640625 20.55914062 -3.114375 20.63390625 -2.1953125 20.7109375 C-1.31359375 20.78054687 -0.431875 20.85015625 0.4765625 20.921875 C3.09963423 21.34315622 4.82358672 21.9090137 7.0546875 23.3359375 C12.2065019 31.92229483 12.4873408 43.63850304 10.41796875 53.3125 C9.49171298 56.086749 8.36260242 58.72010766 7.0546875 61.3359375 C6.3946875 61.3359375 5.7346875 61.3359375 5.0546875 61.3359375 C4.838125 59.94375 4.838125 59.94375 4.6171875 58.5234375 C4.13368639 55.32868639 4.13368639 55.32868639 3.0546875 52.3359375 C2.3946875 52.0059375 1.7346875 51.6759375 1.0546875 51.3359375 C1.0546875 46.3859375 1.0546875 41.4359375 1.0546875 36.3359375 C-0.2653125 36.3359375 -1.5853125 36.3359375 -2.9453125 36.3359375 C-1.9553125 42.2759375 -1.9553125 42.2759375 -0.9453125 48.3359375 C-2.5953125 48.3359375 -4.2453125 48.3359375 -5.9453125 48.3359375 C-2.12450904 58.130144 -2.12450904 58.130144 2.0546875 67.7734375 C6.33992554 77.26852925 9.77385648 87.16548718 12.9296875 97.0859375 C13.25247681 98.08669312 13.25247681 98.08669312 13.58178711 99.10766602 C14.6011697 102.39018762 15.0546875 104.85212995 15.0546875 108.3359375 C15.7146875 108.3359375 16.3746875 108.3359375 17.0546875 108.3359375 C21.70693236 131.3417571 21.70693236 131.3417571 22.0546875 141.3359375 C22.11462891 142.53669922 22.11462891 142.53669922 22.17578125 143.76171875 C22.3477378 150.26572231 21.78870132 156.73510789 21.2421875 163.2109375 C21.17217529 164.12738037 21.10216309 165.04382324 21.0300293 165.98803711 C20.22667166 174.69041068 20.22667166 174.69041068 17.0546875 178.3359375 C13.4921875 178.7734375 13.4921875 178.7734375 10.0546875 178.3359375 C8.0546875 176.3359375 8.0546875 176.3359375 7.8046875 172.9609375 C7.87948632 169.51248042 8.39922965 166.28271904 9.046875 162.8984375 C14.3119433 131.89775306 7.77160664 98.31659379 -4.05712891 69.52783203 C-5.42164869 66.16041624 -6.56744391 62.71367595 -7.72265625 59.26953125 C-8.82386403 57.05787562 -8.82386403 57.05787562 -11.57421875 56.55859375 C-12.35667969 56.48511719 -13.13914062 56.41164062 -13.9453125 56.3359375 C-14.4403125 53.3659375 -14.4403125 53.3659375 -14.9453125 50.3359375 C-14.92210937 51.08359375 -14.89890625 51.83125 -14.875 52.6015625 C-14.85695313 53.58640625 -14.83890625 54.57125 -14.8203125 55.5859375 C-14.79710937 56.56046875 -14.77390625 57.535 -14.75 58.5390625 C-14.97235294 61.72315666 -15.65683812 64.04746312 -17.9453125 66.3359375 C-17.2853125 66.0059375 -16.6253125 65.6759375 -15.9453125 65.3359375 C-15.21455602 63.0218753 -14.54392992 60.68764881 -13.9453125 58.3359375 C-12.6253125 58.3359375 -11.3053125 58.3359375 -9.9453125 58.3359375 C-10.3920587 61.79822058 -11.44972435 64.86957958 -12.7578125 68.0859375 C-13.07363281 68.86453125 -13.38945312 69.643125 -13.71484375 70.4453125 C-14.9453125 72.3359375 -14.9453125 72.3359375 -17.08203125 73.1015625 C-18.00435547 73.21757812 -18.00435547 73.21757812 -18.9453125 73.3359375 C-19.04585938 73.944375 -19.14640625 74.5528125 -19.25 75.1796875 C-21.88283574 87.44221011 -29.7316239 97.99254305 -37.5546875 107.5703125 C-39.10807609 109.45469428 -39.10807609 109.45469428 -40.6328125 112.2734375 C-42.24138764 114.80119844 -43.07178755 115.4816463 -45.9453125 116.3359375 C-52.76012731 116.98496748 -52.76012731 116.98496748 -56.5703125 114.8984375 C-59.24596418 112.01155016 -61.32840399 108.98059787 -63.41796875 105.65234375 C-64.90913519 103.29721744 -64.90913519 103.29721744 -66.7578125 101.16015625 C-69.83694927 97.18477075 -72.32229475 92.90781016 -74.8828125 88.5859375 C-75.39521484 87.73 -75.90761719 86.8740625 -76.43554688 85.9921875 C-85.81478278 70.26081342 -85.81478278 70.26081342 -88.6953125 62.4609375 C-89.10265625 61.37039062 -89.51 60.27984375 -89.9296875 59.15625 C-93.49934253 49.24359258 -92.96445406 38.780576 -89.19921875 28.98046875 C-85.55767288 21.30032373 -79.70660901 15.42043247 -72.9453125 10.3359375 C-72.2853125 10.3359375 -71.6253125 10.3359375 -70.9453125 10.3359375 C-70.9453125 9.6759375 -70.9453125 9.0159375 -70.9453125 8.3359375 C-68.88568398 7.66045172 -66.82246928 6.99589438 -64.7578125 6.3359375 C-63.60925781 5.9646875 -62.46070313 5.5934375 -61.27734375 5.2109375 C-58.30210438 4.42963197 -55.99247354 4.15230444 -52.9453125 4.3359375 C-53.2753125 7.3059375 -53.6053125 10.2759375 -53.9453125 13.3359375 C-52.9553125 13.6659375 -51.9653125 13.9959375 -50.9453125 14.3359375 C-51.9353125 13.3459375 -52.9253125 12.3559375 -53.9453125 11.3359375 C-53.01388182 8.2029434 -52.34492131 6.63564411 -49.6953125 4.6484375 C-43.06804499 1.48542346 -38.14371706 0.84458778 -30.9453125 2.3359375 C-28.93779435 3.32075772 -26.93596791 4.31746264 -24.9453125 5.3359375 C-21.2346706 4.94375584 -18.79257096 3.7866555 -15.6953125 1.7734375 C-10.41900135 -1.24159744 -5.82023115 -1.98682589 0 0 Z M-47.9453125 16.3359375 C-47.9453125 16.9959375 -47.9453125 17.6559375 -47.9453125 18.3359375 C-48.6053125 18.3359375 -49.2653125 18.3359375 -49.9453125 18.3359375 C-49.9453125 20.6459375 -49.9453125 22.9559375 -49.9453125 25.3359375 C-48.6253125 25.9959375 -47.3053125 26.6559375 -45.9453125 27.3359375 C-45.9453125 27.9959375 -45.9453125 28.6559375 -45.9453125 29.3359375 C-46.59757812 29.36171875 -47.24984375 29.3875 -47.921875 29.4140625 C-53.62882372 29.78442495 -57.53384134 30.36561346 -61.9453125 34.3359375 C-63.35721814 36.94030983 -63.35721814 36.94030983 -63.9453125 39.3359375 C-64.6053125 39.3359375 -65.2653125 39.3359375 -65.9453125 39.3359375 C-66.14190058 40.75137165 -66.32718796 42.16837781 -66.5078125 43.5859375 C-66.61222656 44.37484375 -66.71664062 45.16375 -66.82421875 45.9765625 C-66.94558599 48.34126624 -66.64164507 50.0870412 -65.9453125 52.3359375 C-65.2853125 52.3359375 -64.6253125 52.3359375 -63.9453125 52.3359375 C-63.7184375 53.0784375 -63.4915625 53.8209375 -63.2578125 54.5859375 C-61.42438572 58.42740313 -58.71554426 60.45082162 -54.9453125 62.3359375 C-49.84310612 62.84449075 -44.71196029 63.33423667 -40.2578125 60.4609375 C-39.4946875 59.7596875 -38.7315625 59.0584375 -37.9453125 58.3359375 C-37.9453125 57.6759375 -37.9453125 57.0159375 -37.9453125 56.3359375 C-37.2853125 56.3359375 -36.6253125 56.3359375 -35.9453125 56.3359375 C-35.2853125 59.3059375 -34.6253125 62.2759375 -33.9453125 65.3359375 C-33.2853125 65.3359375 -32.6253125 65.3359375 -31.9453125 65.3359375 C-31.605 66.5425 -31.605 66.5425 -31.2578125 67.7734375 C-29.60899662 72.24879489 -27.33986838 76.22315068 -24.9453125 80.3359375 C-24.2853125 80.3359375 -23.6253125 80.3359375 -22.9453125 80.3359375 C-24.30339602 75.17522012 -26.79499751 71.07885941 -29.60546875 66.60546875 C-30.9453125 64.3359375 -30.9453125 64.3359375 -31.9453125 61.3359375 C-32.6053125 61.3359375 -33.2653125 61.3359375 -33.9453125 61.3359375 C-34.2753125 58.0359375 -34.6053125 54.7359375 -34.9453125 51.3359375 C-36.9253125 50.6759375 -38.9053125 50.0159375 -40.9453125 49.3359375 C-40.6153125 50.9859375 -40.2853125 52.6359375 -39.9453125 54.3359375 C-42.2578125 53.4609375 -42.2578125 53.4609375 -44.9453125 51.3359375 C-46.28716405 48.08089918 -47.15455853 44.76253805 -47.9453125 41.3359375 C-48.6053125 41.3359375 -49.2653125 41.3359375 -49.9453125 41.3359375 C-48.65502237 35.14254487 -45.9488958 31.18304307 -41.9453125 26.3359375 C-42.2753125 25.6759375 -42.6053125 25.0159375 -42.9453125 24.3359375 C-44.5953125 24.6659375 -46.2453125 24.9959375 -47.9453125 25.3359375 C-47.6153125 22.3659375 -47.2853125 19.3959375 -46.9453125 16.3359375 C-47.2753125 16.3359375 -47.6053125 16.3359375 -47.9453125 16.3359375 Z M-34.9453125 35.3359375 C-36.69237392 40.57712175 -36.27322966 46.02426886 -34.9453125 51.3359375 C-34.6153125 51.3359375 -34.2853125 51.3359375 -33.9453125 51.3359375 C-32.0400655 46.23259733 -30.51942227 41.87251044 -30.9453125 36.3359375 C-32.2653125 36.0059375 -33.5853125 35.6759375 -34.9453125 35.3359375 Z " fill="#FFFFFF" transform="translate(299.9453125,139.6640625)"></path><path d="M0 0 C0.97259766 0.44859375 0.97259766 0.44859375 1.96484375 0.90625 C3.2904178 1.55722498 4.60567703 2.22959692 5.91015625 2.921875 C22.78575243 11.62779004 38.72391791 11.44007737 56.6171875 5.875 C65.54844222 3.10919209 72.34697018 1.81305009 81 6 C81 6.66 81 7.32 81 8 C81.60328125 8.06058594 82.2065625 8.12117188 82.828125 8.18359375 C83.62734375 8.26738281 84.4265625 8.35117187 85.25 8.4375 C86.43335938 8.55931641 86.43335938 8.55931641 87.640625 8.68359375 C90 9 90 9 91.8203125 9.51953125 C101.02173142 11.54780101 111.34417291 10.47400817 120 7 C120.89847656 6.65195312 121.79695312 6.30390625 122.72265625 5.9453125 C124.4443614 5.26653953 126.16123874 4.57528155 127.87109375 3.8671875 C135.68403811 0.68466705 141.8270664 1.30253659 149.53271484 4.45703125 C151.7458449 5.4088336 153.94533826 6.38760372 156.14453125 7.37109375 C166.11735793 11.73398124 178.69932383 11.20787881 189 8 C191.03011762 7.14676216 193.05068832 6.27054795 195.0625 5.375 C203.24960754 1.87516777 208.06498539 2.08383028 216.3125 5.375 C217.42238281 5.82875 218.53226562 6.2825 219.67578125 6.75 C234.46112538 12.30970637 249.36488678 9.86810375 263.6328125 3.8984375 C270.19276647 1.40868599 275.38639735 3.0530814 281.625 5.5 C291.70433353 9.37349041 302.38307257 8.44969392 313 8 C313.33 9.65 313.66 11.3 314 13 C301.73735464 16.27003876 291.32931161 14.93239354 279.19921875 11.97265625 C270.73187994 9.96808257 270.73187994 9.96808257 262.375 11.8125 C246.4696898 17.55112003 229.62657992 17.58398628 213.75 11.8125 C205.13369534 8.83250862 199.13277258 11.10338907 190.83203125 14.0625 C175.89081971 19.00855623 157.80979987 16.88143821 143.65234375 10.48828125 C141 9 141 9 140 7 C138.99582031 7.39832031 137.99164063 7.79664063 136.95703125 8.20703125 C116.39497219 16.24050927 97.26897861 19.20540908 76 12 C68.62796854 9.54265618 61.81451 11.61682499 54.5625 13.5 C36.70839964 17.81125768 18.79052104 17.42646967 2 9 C0.453125 7.8553125 0.453125 7.8553125 -1.125 6.6875 C-5.08169563 4.36509169 -7.67094891 5.02218559 -12 6 C-12.99 6.185625 -13.98 6.37125 -15 6.5625 C-15.66 6.706875 -16.32 6.85125 -17 7 C-17 7.66 -17 8.32 -17 9 C-39.8564868 15.5717566 -39.8564868 15.5717566 -47 12 C-47.042721 10.33388095 -47.04063832 8.66617115 -47 7 C-45.47195563 5.47195563 -44.00180283 5.78708197 -41.87109375 5.67578125 C-32.79796966 5.08265584 -24.66573916 4.36083812 -16.25 0.75 C-10.21654979 -1.80465039 -6.10210255 -2.85997534 0 0 Z " fill="#FFFFFF" transform="translate(117,321)"></path><path d="M0 0 C3.0625 0.375 3.0625 0.375 4.73262024 2.11761475 C6.22121747 4.64441269 6.42810465 5.96486012 6.40307617 8.86816406 C6.40284958 9.74877502 6.40262299 10.62938599 6.40238953 11.53668213 C6.38690567 12.47848328 6.37142181 13.42028442 6.35546875 14.390625 C6.35122391 15.36159119 6.34697906 16.33255737 6.34260559 17.33294678 C6.32582853 20.43058131 6.28817772 23.52756249 6.25 26.625 C6.23495192 28.7265531 6.22126373 30.8281164 6.20898438 32.9296875 C6.17592811 38.07837629 6.12415208 43.22657741 6.0625 48.375 C6.60519531 48.02566406 7.14789063 47.67632812 7.70703125 47.31640625 C8.78017578 46.63384766 8.78017578 46.63384766 9.875 45.9375 C10.58269531 45.48503906 11.29039062 45.03257812 12.01953125 44.56640625 C16.23973143 42.10529524 20.31518235 42.12585388 25.0625 42.0625 C25.78695312 42.03349609 26.51140625 42.00449219 27.2578125 41.97460938 C32.55744368 41.91105291 32.55744368 41.91105291 35.078125 44.2265625 C36.35622336 47.01606289 35.99523375 48.49907095 35.0625 51.375 C34.7325 51.705 34.4025 52.035 34.0625 52.375 C33.98002135 53.76646038 33.96606155 55.16208251 33.98071289 56.5559082 C33.9872438 57.44385574 33.99377472 58.33180328 34.00050354 59.24665833 C34.01193893 60.21326889 34.02337433 61.17987946 34.03515625 62.17578125 C34.04780605 64.2050764 34.06016675 66.23437337 34.07226562 68.26367188 C34.09707635 71.47653805 34.12501884 74.68931109 34.15844727 77.90209961 C34.18864391 80.99333292 34.206427 84.08444749 34.22265625 87.17578125 C34.23611588 88.13631912 34.2495755 89.09685699 34.26344299 90.08650208 C34.26682175 90.9839061 34.2702005 91.88131012 34.27368164 92.8059082 C34.28486778 93.98719048 34.28486778 93.98719048 34.29627991 95.19233704 C34.02956427 97.68250118 33.4079632 99.26928007 32.0625 101.375 C28.24150227 102.7349037 24.99839612 102.26031832 21.0625 101.5625 C20.051875 101.39105469 19.04125 101.21960938 18 101.04296875 C13.50914531 100.02177706 10.11592766 98.91054782 7.0625 95.375 C6.4025 96.365 5.7425 97.355 5.0625 98.375 C3.75 100.125 3.75 100.125 2.0625 101.375 C-1.27942692 101.13046876 -2.54293557 100.76956443 -4.9375 98.375 C-5.13643477 95.34235625 -5.21013074 92.40099434 -5.19628906 89.3671875 C-5.1997937 88.43376526 -5.20329834 87.50034302 -5.20690918 86.53863525 C-5.21573702 83.44234863 -5.20987361 80.34628909 -5.203125 77.25 C-5.20447135 75.10530554 -5.20641162 72.96061138 -5.20892334 70.81591797 C-5.21187603 66.31670227 -5.20757228 61.81756587 -5.19824219 57.31835938 C-5.18684761 51.54090055 -5.1934063 45.76362753 -5.20538712 39.98617554 C-5.21260179 35.55621939 -5.21031959 31.12630755 -5.20513153 26.6963501 C-5.20379395 24.56561257 -5.20544653 22.43487107 -5.21009064 20.30413818 C-5.2151494 17.33025399 -5.20745476 14.35667395 -5.19628906 11.3828125 C-5.20236176 10.05180511 -5.20236176 10.05180511 -5.20855713 8.69390869 C-5.15244016 0.65775832 -5.15244016 0.65775832 0 0 Z M14.22265625 56.37890625 C9.80390315 59.78573116 6.76639389 64.06184428 5.609375 69.5078125 C5.1769196 75.14938974 6.88319168 78.94450776 10.23828125 83.42578125 C16.18669962 89.78180003 22.26692167 89.57540197 31.0625 90.375 C31.0625 78.495 31.0625 66.615 31.0625 54.375 C25.06322739 53.17514548 19.71087738 53.38427179 14.22265625 56.37890625 Z " fill="#FFFFFF" transform="translate(130.9375,216.625)"></path><path d="M0 0 C2.75 2.5 2.75 2.5 5 5 C6.11375 5.6496875 6.11375 5.6496875 7.25 6.3125 C9.64980312 8.62659586 9.85046831 10.65998696 10.41015625 13.8671875 C9.37296842 19.26056423 2.8674595 22.82404434 -1.3125 26 C-2.16690674 26.65464233 -2.16690674 26.65464233 -3.03857422 27.32250977 C-6.15058094 29.68186765 -9.28839324 31.9008699 -12.625 33.9375 C-15.86724586 35.71742199 -15.86724586 35.71742199 -17.55078125 37.63671875 C-18.02902344 38.08660156 -18.50726563 38.53648437 -19 39 C-21.5625 38.875 -21.5625 38.875 -24 38 C-26 35 -26 35 -26.02734375 32.140625 C-24.65152209 27.9346911 -22.06209318 26.17538651 -18.5625 23.75 C-17.37567078 22.89149706 -16.18944745 22.03215574 -15.00390625 21.171875 C-14.01261719 20.45515625 -13.02132812 19.7384375 -12 19 C-11.34 18.34 -10.68 17.68 -10 17 C-9.01 17 -8.02 17 -7 17 C-6.505 15.515 -6.505 15.515 -6 14 C-5.34 13.67 -4.68 13.34 -4 13 C-8.39366596 9.74018332 -12.60431885 8.71915224 -18 9 C-22.90582753 10.21566694 -26.82068448 11.87965026 -30.5 15.375 C-34.13577418 21.73760481 -34.49385325 26.89826908 -33 34 C-31.5769016 36.90630368 -31.5769016 36.90630368 -30 39 C-30 39.66 -30 40.32 -30 41 C-29.278125 41.28875 -28.55625 41.5775 -27.8125 41.875 C-25 43 -25 43 -22.75 44.125 C-16.8214916 46.01134358 -11.64737307 45.37784129 -6 43 C-3.6679198 42.92353835 -1.33154122 42.90856701 1 43 C3.125 48.625 3.125 48.625 2 52 C1.34 52 0.68 52 0 52 C0 52.66 0 53.32 0 54 C-7.32844881 58.68206452 -15.9137628 58.70945624 -24.25 57 C-31.97685386 54.79521709 -37.5748161 49.63777586 -42 43 C-42 42.01 -42 41.02 -42 40 C-42.66 40 -43.32 40 -44 40 C-46.5870041 32.88573871 -47.67058374 24.3067633 -44.75 17.125 C-42.96455606 13.93670725 -41.15406484 10.95414606 -39 8 C-38.60296875 7.40960938 -38.2059375 6.81921875 -37.796875 6.2109375 C-29.48985892 -5.00830836 -11.77719442 -6.20979342 0 0 Z " fill="#FFFFFF" transform="translate(213,261)"></path><path d="M0 0 C7.20621538 3.35461751 10.76615668 9.56581531 13.91967773 16.60522461 C15.79712867 22.50487552 15.66498064 28.41824199 15.54199219 34.54443359 C15.49979085 36.76098513 15.50096874 38.97451637 15.5078125 41.19140625 C15.45661712 48.17840272 15.28518655 53.74710291 12 60 C9.5 61.0625 9.5 61.0625 7 61 C6.01 60.34 5.02 59.68 4 59 C4 58.34 4 57.68 4 57 C3.13375 57.495 2.2675 57.99 1.375 58.5 C-5.17577556 61.30747524 -14.26572805 61.31490598 -21 59 C-25.81705955 55.78862697 -29.16578979 51.50263062 -31 46 C-31.94599075 33.39285403 -31.94599075 33.39285403 -28 28 C-22.00709519 22.1544617 -17.20736705 20.28751923 -9 20 C-5.875 20.4375 -5.875 20.4375 -4 21 C-4 21.66 -4 22.32 -4 23 C-3.38125 23.0825 -2.7625 23.165 -2.125 23.25 C0 24 0 24 1.1328125 26.046875 C1.41898437 26.69140625 1.70515625 27.3359375 2 28 C2.21755666 22.5610835 2.10428384 18.12919186 0 13 C-5.25100345 12.08315813 -8.75028117 11.65032113 -13.75 13.625 C-17.65000912 15.10714007 -17.65000912 15.10714007 -21.0625 14.0625 C-23 12 -23 12 -23.625 9.0625 C-23 6 -23 6 -20.75 3.75 C-13.89583221 -0.61174314 -8.10476233 -0.76335552 0 0 Z M0 30 C-0.33 30.33 -0.66 30.66 -1 31 C-2.89628198 30.99410177 -4.79249856 30.94492625 -6.6875 30.875 C-11.59015522 30.82836357 -14.84726202 31.15865296 -19 34 C-21.41339891 35.98959408 -21.41339891 35.98959408 -21.375 39.875 C-21.30568818 43.05756788 -21.14673726 43.80924156 -19.125 46.4375 C-14.89424335 49.54835047 -11.13583225 49.6311713 -6 49 C-2.02788871 46.94038674 0.65811436 44.80132162 3 41 C3.36034523 38.41118198 3.36034523 38.41118198 3.1875 35.75 C3.16042969 34.85796875 3.13335937 33.9659375 3.10546875 33.046875 C3.05326172 32.03367187 3.05326172 32.03367187 3 31 C2.01 30.67 1.02 30.34 0 30 Z " fill="#FFFFFF" transform="translate(286,258)"></path><path d="M0 0 C5.38151274 3.14595952 8.32686896 7.21180281 10.703125 12.96484375 C12.49508198 19.85698599 12.68090712 26.69929761 12.640625 33.77734375 C12.63651611 34.64931396 12.63240723 35.52128418 12.62817383 36.41967773 C12.46194308 55.79717871 12.46194308 55.79717871 10.16015625 58.94140625 C8.515625 60.08984375 8.515625 60.08984375 5.515625 59.90234375 C2.515625 59.08984375 2.515625 59.08984375 -0.484375 57.08984375 C-2.16261386 57.72681829 -3.82747095 58.39927065 -5.484375 59.08984375 C-8.82421875 59.390625 -8.82421875 59.390625 -12.421875 59.40234375 C-13.60652344 59.41910156 -14.79117187 59.43585938 -16.01171875 59.453125 C-19.78527216 59.05836632 -22.22228676 57.97737267 -25.484375 56.08984375 C-25.484375 55.42984375 -25.484375 54.76984375 -25.484375 54.08984375 C-26.061875 53.86296875 -26.639375 53.63609375 -27.234375 53.40234375 C-30.21894015 51.66134741 -31.63585721 50.02197542 -33.484375 47.08984375 C-34.87153354 41.14487856 -34.69958732 35.83176226 -32.484375 30.08984375 C-30.296875 27.33984375 -30.296875 27.33984375 -27.484375 25.08984375 C-26.70900391 24.40921875 -26.70900391 24.40921875 -25.91796875 23.71484375 C-21.42344817 20.0441448 -17.2774463 18.8788029 -11.484375 19.08984375 C-7.81900781 19.97224696 -5.62443692 20.99646914 -2.484375 23.08984375 C-2.234375 26.65234375 -2.234375 26.65234375 -2.484375 30.08984375 C-2.814375 30.41984375 -3.144375 30.74984375 -3.484375 31.08984375 C-5.7351466 31.03092303 -7.98517398 30.94250438 -10.234375 30.83984375 C-15.87813311 30.75905039 -15.87813311 30.75905039 -20.859375 33.21484375 C-23.14988661 37.26728737 -22.92132037 40.01435324 -21.984375 44.46484375 C-21.819375 45.00109375 -21.654375 45.53734375 -21.484375 46.08984375 C-15.5840398 48.13689882 -11.31089953 48.36535193 -5.234375 46.33984375 C-2.68146874 44.51633928 -1.82204057 42.96471617 -0.484375 40.08984375 C-0.04495147 36.79119816 -0.06558354 33.53812933 -0.109375 30.21484375 C-0.09777344 29.34214844 -0.08617187 28.46945312 -0.07421875 27.5703125 C-0.09934915 21.99974119 -0.76255525 17.98400791 -3.484375 13.08984375 C-6.95055311 10.77905834 -8.4255798 11.06172465 -12.42578125 11.65625 C-14.71935403 12.08836966 -14.71935403 12.08836966 -17.734375 13.27734375 C-20.484375 14.08984375 -20.484375 14.08984375 -22.859375 13.21484375 C-23.395625 12.84359375 -23.931875 12.47234375 -24.484375 12.08984375 C-24.9714884 5.75736952 -24.9714884 5.75736952 -22.796875 2.77734375 C-16.34707871 -1.92926435 -7.48707793 -2.74290748 0 0 Z " fill="#FFFFFF" transform="translate(361.484375,258.91015625)"></path><path d="M0 0 C2.70477388 0.52105343 5.22753129 1.40747102 7.80078125 2.375 C26.32741648 9.1268098 44.27246373 9.49009752 62.89428711 2.64355469 C71.07049792 0.14471507 77.93413591 2.83005918 85.62890625 5.75390625 C101.20595679 11.51181948 118.59547657 9.9157315 134 4.25 C141.09898882 1.76074418 147.34227221 4.66376369 154.1328125 7.0625 C169.88728164 12.21382506 187.29818913 9.15166162 202.77929688 4.64086914 C203.51212891 4.42938232 204.24496094 4.21789551 205 4 C205.76892578 3.77755615 206.53785156 3.5551123 207.33007812 3.32592773 C212.42924656 1.9990485 215.66928925 1.95989937 220.75 3.8125 C234.87903027 8.81226554 249.74569236 8.48550767 263.93359375 3.77734375 C267.1125229 2.97147509 268.8919804 3.07630819 272 4 C271.859375 5.86328125 271.859375 5.86328125 271 8 C268.453125 9.23046875 268.453125 9.23046875 265.25 10.1875 C264.20328125 10.51105469 263.1565625 10.83460938 262.078125 11.16796875 C247.67206512 15.06199255 231.48145152 14.33766678 217.33984375 9.77734375 C209.91171134 8.04845679 202.28767947 11.18011747 195.11523438 13.18359375 C178.3698009 17.74439674 160.32011298 17.42527186 144.22265625 10.453125 C138.90432288 9.36889535 133.33965246 11.09613409 128.21826172 12.51147461 C111.73327562 16.98449861 93.4106028 16.73349248 77.625 9.75 C69.54203914 6.31606238 62.02230102 9.45004662 53.87133789 11.54785156 C48.88232148 12.82074521 44.14026907 13.78619331 39 14 C37.52853516 14.07734375 37.52853516 14.07734375 36.02734375 14.15625 C24.0929296 14.49763968 10.39923227 12.18067578 0 6 C-0.921875 3.3984375 -0.921875 3.3984375 -1 1 C-0.67 0.67 -0.34 0.34 0 0 Z " fill="#FFFFFF" transform="translate(115,345)"></path><path d="M0 0 C1.75710058 0.43031035 3.51057967 0.87802276 5.25 1.375 C7.28596469 1.95433282 7.28596469 1.95433282 10.0625 0.75 C15.50425572 0.47791221 19.89076605 0.7847411 25.0625 2.75 C27.62937367 6.6003105 26.89538724 8.33569763 26.0625 12.75 C21.41137629 13.82333624 17.89238451 13.528798 13.30859375 12.515625 C10.82556295 12.58097385 10.82556295 12.58097385 8.4597168 14.69384766 C5.2091716 18.83788724 5.37959183 21.76368336 5.4609375 26.8828125 C5.45293121 27.75646454 5.44492493 28.63011658 5.43667603 29.53024292 C5.41364371 32.31230419 5.42306253 35.0928998 5.4375 37.875 C5.44134486 40.66396538 5.43794853 43.45228784 5.41690063 46.24118042 C5.40478952 47.97399024 5.40751678 49.70698078 5.42660522 51.43972778 C5.39922975 57.3141426 5.39922975 57.3141426 3.73184204 59.47238159 C1.17080747 61.43245019 -0.82244615 61.14766645 -3.9375 60.75 C-6.16576846 57.40759731 -6.19345255 56.3112444 -6.2121582 52.40820312 C-6.22169022 51.31697144 -6.23122223 50.22573975 -6.24104309 49.10144043 C-6.24013168 47.92327759 -6.23922028 46.74511475 -6.23828125 45.53125 C-6.24256638 44.32182739 -6.2468515 43.11240479 -6.25126648 41.86633301 C-6.25701326 39.30754218 -6.2575075 36.74873502 -6.25317383 34.18994141 C-6.25001262 30.26566858 -6.27347431 26.34214838 -6.29882812 22.41796875 C-6.30110086 19.93489679 -6.30180473 17.45182279 -6.30078125 14.96875 C-6.309991 13.79058716 -6.31920074 12.61242432 -6.32868958 11.39855957 C-6.32246078 10.30732788 -6.31623199 9.21609619 -6.30981445 8.09179688 C-6.31044388 7.13043823 -6.3110733 6.16907959 -6.3117218 5.17858887 C-5.9375 2.75 -5.9375 2.75 -4.5978241 0.9005127 C-2.9375 -0.25 -2.9375 -0.25 0 0 Z " fill="#FFFFFF" transform="translate(231.9375,257.25)"></path><path d="M0 0 C0 3 0 3 0 3 Z " fill="#FFFFFF" transform="translate(282,213)"></path><path d="" fill="#FFFFFF" transform="translate(0,0)"></path></svg>